<svg xmlns="http://www.w3.org/2000/svg" height="411.67999" width="716.34668"><path d="M187.80266197 141.89200674h-8.96399977c-13.55466633 0-26.67333267 8.96399978-26.67333267 34.97999913 0 25.14266604 12.02533303 33.23199917 26.67333267 33.23199917h8.96399977zm-13.99199965 82.20533128l-26.67333267 59.9023985h-19.4575995l29.29626593-64.0583984c-13.773333-6.99599982-22.95599943-19.6759995-22.95599943-43.06933225 0-32.79333251 20.76933281-49.19066544 45.47466553-49.19066544h25.1413327v156.3183961h-16.8333329v-59.9023985h-13.99199966" fill="#ee252c"/><path d="M531.7039867 228.90667124c0-34.54399914 13.337333-56.62533192 39.13599903-56.62533192 9.83733309 0 15.52133294 2.62399993 20.3319995 5.68399986l-2.40533328 16.17866626c-4.59066655-3.9359999-11.14933306-7.65199981-18.14533288-7.65199981-12.2439997 0-20.98799948 13.77333299-20.98799948 41.53999896 0 27.54666598 6.55733317 43.28799892 20.3319995 43.28799892 8.30666645 0 14.64799963-3.27866659 18.5826662-6.77733316l3.93466656 12.67999968c-5.90266651 5.02919987-12.89866634 8.30786646-22.95599942 8.30786646-23.61199941 0-37.82266572-19.0198662-37.82266572-56.62386525zm-49.84666541.21866666v54.87439863h-17.05333291V173.8106726h17.0533329v50.94133206l26.45333268-50.94133206h17.2733329l-27.32933265 51.8159987 31.26399922 58.37306522h-18.58399954zm-80.235998-10.27599975h28.20266596c0-18.8026662-3.06133325-32.57599918-12.89866634-32.57599918-10.4946664 0-14.21066631 12.89866634-15.30399962 32.57599918zm18.80133287 66.68119834c-22.73599944 0-36.72933242-18.14519955-36.72933242-52.0331987 0-35.41733245 9.83866642-61.21599847 33.23199917-61.21599847 18.36533287 0 30.38933257 13.77333299 30.38933257 51.15999872v9.39999976h-45.91199885c0 24.92399938 6.99599983 38.04266572 20.55066615 38.04266572 9.61999976 0 17.27199957-4.37333322 21.64399946-7.43466648l3.9359999 13.117333c-6.99599982 5.46639987-16.17866626 8.96386645-27.11066598 8.96386645zm-72.58399819-97.94519755h-19.02133286v1.96666661c0 23.1746661-1.0933333 57.06266524-10.2746664 80.455998h29.29599926zM373.417324 305.64506932h-15.30399962v-21.6453328h-47.22399882v21.6453328h-15.30399962v-35.63706578h6.7786665c10.05599975-23.39333275 11.14933306-57.49999856 11.14933306-86.79599783v-9.4013331h51.15999872v96.19733093h8.74399978zm-87.66933114-131.8343967v110.1890639H268.9133266V234.5906711h-25.3613327v49.40906544h-17.05199957V173.8106726h17.05199957v46.7866655h25.3613327v-46.7866655h16.83466625" fill="#040606"/></svg>