<?xml version="1.0" encoding="UTF-8" standalone="no"?>
<svg class="ya-logo" version="1.1"
     xmlns="http://www.w3.org/2000/svg">
    <circle cx="60" cy="60" r="51" fill="white"></circle>
    <g transform="scale(1.8)">
        <g transform="translate(24,16)">
            <g transform="matrix(1.25,0,0,-1.25,209.15146,959.834)">
                <g transform="translate(-157.01488,752.9562)">
                    <path d="m 0,0 -1.535,0 c -2.412,0 -4.751,1.754 -4.751,6.14 0,4.568 2.193,6.432
                     4.422,6.432 L 0,12.572 0,0 z m 2.412,14.911 -4.166,0 c -4.094,0 -7.565,-3.107
                     -7.565,-9.137 0,-3.618 1.681,-6.286 4.678,-7.601 l -5.592,-10.087
                     c -0.183,-0.329 0,-0.585 0.292,-0.585 l 2.595,0 c 0.219,0 0.366,0.073
                     0.439,0.256 l 5.08,9.904 1.827,0 0,-9.904 c 0,-0.11 0.11,-0.256
                     0.256,-0.256 l 2.266,0 c 0.219,0 0.292,0.11 0.292,0.292 l
                     0,26.753 c 0,0.255 -0.146,0.365 -0.402,0.365"
                          style="fill:#ffe05e;"></path></g></g></g></g>
</svg>
