<svg xmlns="http://www.w3.org/2000/svg" width="102" height="102"><path fill="#fff" fill-rule="evenodd" d="M51.000215 0C22.833694 0 0 22.83369 0 51.00022 0 79.16672 22.833694 102 51.000215 102 79.166745 102 102 79.16672 102 51.00022 102 22.83369 79.166745 0 51.000215 0zm1.48729 15.78202h10.66726c.65505 0 1.02943.28068 1.02943.9389v68.69809c0 .46744-.18742.74824-.74868.74824h-5.80352c-.37134 0-.65158-.37455-.65158-.65553V60.07787h-4.68008l-13.00424 25.43385c-.18716.46816-.56157.65553-1.12301.65553h-6.64228c-.74599 0-1.21386-.65551-.74604-1.50041l14.31135-25.90265c-7.66913-3.37861-11.97394-10.2292-11.97394-19.5197 0-15.48572 8.88869-23.46247 19.36533-23.46247zm-.28075 6.00556c-5.70643 0-11.31929 4.78515-11.31929 16.51801 0 11.26225 5.98716 15.76672 12.16154 15.76672h3.93141V21.78758z"/></svg>