<svg xmlns="http://www.w3.org/2000/svg" width="102" height="102" viewBox="0 0 26.987 26.988"><path d="M13.497-.007A13.363 13.363 0 0 0 .134 13.357 13.363 13.363 0 0 0 13.497 26.72 13.363 13.363 0 0 0 26.86 13.357 13.363 13.363 0 0 0 13.497-.007zm-.477 3.649h5.072v19.094H16.58v-8.48h-1.75c-.508 0-.905.096-1.19.287-.28.183-.57.543-.875 1.081-.299.539-.743 1.585-1.333 3.14l-1.523 3.972H8.006l1.998-5.197c.343-.894.739-1.706 1.19-2.436.221-.356.545-.707.97-1.055-1.047-.243-1.846-.812-2.398-1.706-.546-.894-.818-2.062-.818-3.503 0-1.094.161-2.054.485-2.879.324-.833.736-1.428 1.237-1.784.508-.356 1.291-.534 2.35-.534zm-.057 2.11c-.812 0-1.424.277-1.837.833-.412.547-.618 1.303-.618 2.267 0 .668.108 1.254.324 1.758.216.503.507.873.875 1.107.368.235.907.352 1.618.352h3.254V5.752h-3.616z" fill="#fff" fill-rule="evenodd"/></svg>