<svg xmlns="http://www.w3.org/2000/svg" width="102mm" height="102mm" viewBox="0 0 102 102"><path d="M51.405.702A50.649 50.649 0 0 0 .756 51.352 50.649 50.649 0 0 0 51.405 102a50.649 50.649 0 0 0 50.649-50.649A50.649 50.649 0 0 0 51.404.702zm2.035 18.574h11.246v58.057H59.93V53.109h-8.309L40.907 77.333h-5.624l11.47-25.375c-3.003-1.35-5.185-3.389-6.546-6.115-1.362-2.754-2.042-6.222-2.042-10.404 0-5.19 1.259-9.173 3.777-11.953 2.536-2.806 6.369-4.21 11.498-4.21zm.14 5.838c-3.413 0-6.006.834-7.778 2.502-1.771 1.668-2.657 4.381-2.657 8.14 0 7.704 3.534 11.556 10.603 11.556h6.182V25.114h-6.35z" fill="#fff"/></svg>