<svg xmlns="http://www.w3.org/2000/svg" width="115" height="43" style=""><rect id="backgroundrect" width="100%" height="100%" x="0" y="0" fill="none" stroke="none" style="" class=""/><g class="currentLayer" style=""><title>Layer 1</title><g fill="none" fill-rule="evenodd" id="svg_1" class=""><path d="M60.964,34.528999999999996 h-2.16 l-0.01000000000000004,-23.496 H46.167 v2.3 c0,7.171 -0.26,15.47 -2.742,21.196 H41.75 v8.468 h3.777 v-5.043 h11.658 V42.995999999999995 h3.778 v-8.468 zM77.74,33.00599999999999 c-1.08,0.7500000000000022 -2.9690000000000003,1.82 -5.343,1.82 c-3.346,0 -5.073,-3.211 -5.073,-9.311 h11.333 v-2.301 c0,-9.15 -2.968,-12.522 -7.502,-12.522 c-5.774,0 -8.203,6.314 -8.203,14.983 c0,8.294 3.454,12.735 9.067,12.735 c2.6980000000000004,0 4.965,-0.8560000000000006 6.692,-2.193 l-0.971,-3.211 zM34.636,10.998999999999995 v11.511 h-6.26 v-11.51 h-4.21 v26.969 h4.21 V25.802999999999997 h6.26 v12.166 h4.156 v-26.97 h-4.156 zm59.629,26.96 h4.587 l-7.7170000000000005,-14.288 l6.746,-12.682 h-4.264 l-6.53,12.468 V10.988999999999997 h-4.21 v26.97 h4.21 V24.525999999999996 l7.178,13.431000000000001 zm20.48,-1.6880000000000006 l-0.972,-3.104 c-0.972,0.8560000000000006 -2.537,1.6590000000000007 -4.587,1.6590000000000007 c-3.4,0 -5.02,-3.853 -5.02,-10.595 c0,-6.796 2.16,-10.167 5.181,-10.167 c1.727,0 3.346,0.91 4.48,1.8730000000000002 l0.5940000000000006,-3.96 c-1.188,-0.7490000000000022 -2.591,-1.391 -5.02,-1.391 c-6.368,0 -9.66,5.404 -9.66,13.859 c0,9.204 3.508,13.86 9.337,13.86 c2.482,0 4.21,-0.803 5.666,-2.034 zm-60.048,-1.6470000000000002 h-7.232 C49.72999999999999,28.898999999999994 50,20.603999999999992 50,14.931999999999995 v-0.4810000000000003 h4.696 v20.173 zm19.605,-12.484 H67.34 c0.27,-4.816 1.187,-7.973 3.777,-7.973 c2.4290000000000003,0 3.185,3.371 3.185,7.973 z" fill="#000" id="svg_2"/><path d="M14.841000000000001,23.702999999999996 v14.288 h4.156 V-3.552713678800501e-15 H12.79 c-6.098,0 -11.225,4.119 -11.225,12.145 c0,5.726 2.267,8.83 5.667,10.542 L1.7763568394002505e-15,37.991 h4.803 l6.584,-14.288 h3.454 zm-0.013000000000000062,-3.333 h-2.212 c-3.616,0 -6.585,-1.98 -6.585,-8.134 c0,-6.367 3.238,-8.64 6.585,-8.64 h2.212 v16.774 z" fill="#F00" id="svg_3"/></g></g></svg>
