<svg width="102" height="102" viewBox="0 0 102 102" version="1.1" xmlns="http://www.w3.org/2000/svg" xmlns:xlink="http://www.w3.org/1999/xlink">
<title>Subtract</title>
<desc>Created using Figma</desc>
<g id="Canvas" transform="translate(145 318)">
<g id="Subtract">
<use xlink:href="#path0_fill" transform="translate(-145 -318)" fill="#FFFFFF"/>
</g>
</g>
<defs>
<path id="path0_fill" fill-rule="evenodd" d="M 51 102C 79.1665 102 102 79.1665 102 51C 102 22.8335 79.1665 0 51 0C 22.8335 0 0 22.8335 0 51C 0 79.1665 22.8335 102 51 102ZM 36.5586 77.3984L 49.8828 56.0938L 59.9727 56.0938L 59.9727 77.3984L 66.4414 77.3984L 66.4414 26L 52.0273 26C 45.6289 26 40.8242 27.2422 37.6133 29.7266C 34.4258 32.1875 32.832 35.7383 32.832 40.3789C 32.832 44.082 33.6875 47.1406 35.3984 49.5547C 37.1094 51.9688 39.7812 53.7617 43.4141 54.9336L 29 77.3984L 36.5586 77.3984ZM 52.2031 31.5195L 59.9727 31.5195L 59.9727 50.6094L 52.4844 50.6094C 43.8359 50.6094 39.5117 47.3047 39.5117 40.6953C 39.5117 37.5781 40.5547 35.2695 42.6406 33.7695C 44.7266 32.2695 47.9141 31.5195 52.2031 31.5195Z"/>
</defs>
</svg>
