<svg xmlns="http://www.w3.org/2000/svg" width="138" height="92" viewBox="0 0 36.512 24.342"><path d="M36.349 15.2l-17.741 9.118L.7 15.187.617.119 36.31.032z" fill="#fff" fill-opacity=".588" stroke="#000" stroke-width=".547"/><g aria-label="Яндекс" style="line-height:1.25;-inkscape-font-specification:'Open Sans'" font-weight="400" font-size="85.333" font-family="Open Sans" letter-spacing="-5.156" word-spacing="0" stroke-width="20.256"><path d="M10.185 9.05l-1.27 3.113h-.667l1.36-3.261q-.534-.26-.776-.786-.242-.53-.242-1.337 0-1 .448-1.536.45-.541 1.363-.541h1.333v7.461h-.564V9.05zm.985-3.598h-.753q-.607 0-.922.322-.315.321-.315 1.046 0 1.485 1.257 1.485h.733z" fill="red"/><path d="M13.127 6.57v2.342h2.037V6.57h.55v5.593h-.55V9.642h-2.037v2.521h-.55V6.57zM19.635 14.097H19.1v-1.934h-2.54v1.934h-.531v-2.664h.285q.445-.928.697-2.179.252-1.25.262-2.684h1.84v4.863h.52zm-1.052-2.664V7.238h-.815q-.043 1.133-.286 2.297-.238 1.158-.596 1.898zM21.49 12.265q-.806 0-1.274-.755-.464-.755-.464-2.098 0-1.352.43-2.148.435-.796 1.165-.796.683 0 1.08.694.399.689.399 1.822v.536h-2.504q.017.985.322 1.495.308.51.865.51.587 0 1.161-.377v.755q-.292.194-.554.275-.259.087-.627.087zm-.15-5.088q-.438 0-.7.439-.258.439-.305 1.215h1.9q0-.802-.232-1.225-.232-.429-.663-.429zM25.47 6.57h.603l-1.568 2.7 1.698 2.893h-.644l-1.658-2.832v2.832h-.55V6.57h.55v2.72zM27.921 12.265q-.789 0-1.223-.745-.431-.75-.431-2.118 0-1.403.437-2.169.441-.765 1.254-.765.262 0 .524.086.262.087.411.205l-.17.72q-.182-.113-.397-.185-.216-.076-.381-.076-1.108 0-1.108 2.174 0 1.03.269 1.582.271.551.802.551.454 0 .932-.3v.75q-.365.29-.919.29z"/></g></svg>