<svg id="svg" version="1.1" width="400" height="400" xmlns="http://www.w3.org/2000/svg" xmlns:xlink="http://www.w3.org/1999/xlink" style="display: block;"><g id="svgg"><path id="path0" d="M158.800 1.000 L 158.800 2.000 151.480 2.000 C 143.365 2.000,143.200 2.049,143.200 4.480 L 143.200 6.000 137.595 6.000 C 134.138 6.000,131.646 6.177,131.095 6.462 C 130.603 6.716,129.930 7.045,129.600 7.192 C 129.270 7.340,128.743 8.032,128.428 8.730 L 127.856 10.000 123.971 10.000 C 119.744 10.000,119.600 10.080,119.600 12.433 L 119.600 13.600 117.050 13.600 C 112.489 13.600,112.000 13.818,112.000 15.850 L 112.000 17.600 108.633 17.600 C 104.195 17.600,104.000 17.694,104.000 19.843 L 104.000 21.600 100.390 21.600 C 96.468 21.600,96.000 21.918,96.000 24.584 C 96.000 25.470,95.844 25.522,92.764 25.662 C 89.192 25.824,88.400 26.335,88.400 28.476 C 88.400 29.558,88.325 29.600,86.400 29.600 L 84.400 29.600 84.400 31.400 C 84.400 33.146,84.363 33.200,83.162 33.200 C 80.290 33.200,77.680 34.347,77.193 35.821 C 76.845 36.874,76.515 37.200,75.795 37.200 C 73.651 37.200,72.800 37.873,72.800 39.568 L 72.800 41.156 70.900 41.278 L 69.000 41.400 68.878 43.300 L 68.756 45.200 66.778 45.200 L 64.800 45.200 64.800 47.200 L 64.800 49.200 62.800 49.200 C 61.082 49.200,60.800 49.310,60.800 49.982 C 60.800 50.984,59.168 52.621,57.834 52.956 C 57.168 53.123,56.800 53.491,56.800 53.989 C 56.800 54.990,54.990 56.800,53.989 56.800 C 53.491 56.800,53.123 57.168,52.956 57.834 C 52.621 59.168,50.984 60.800,49.982 60.800 C 49.310 60.800,49.200 61.082,49.200 62.800 L 49.200 64.800 47.200 64.800 L 45.200 64.800 45.200 66.778 L 45.200 68.756 43.300 68.878 L 41.400 69.000 41.278 70.900 L 41.156 72.800 39.425 72.800 C 37.561 72.800,37.218 73.249,37.205 75.700 C 37.201 76.648,37.039 76.800,36.029 76.800 C 34.213 76.800,33.716 77.629,33.401 81.186 L 33.117 84.400 31.358 84.400 L 29.600 84.400 29.600 86.400 C 29.600 88.325,29.558 88.400,28.476 88.400 C 26.335 88.400,25.824 89.192,25.662 92.764 C 25.522 95.844,25.470 96.000,24.584 96.000 C 21.918 96.000,21.600 96.468,21.600 100.390 L 21.600 104.000 19.843 104.000 C 17.694 104.000,17.600 104.195,17.600 108.633 L 17.600 112.000 15.847 112.000 C 13.762 112.000,13.614 112.310,13.605 116.700 L 13.600 119.600 12.433 119.600 C 10.080 119.600,10.000 119.744,10.000 123.971 L 10.000 127.856 8.730 128.428 C 8.032 128.743,7.340 129.270,7.192 129.600 C 7.045 129.930,6.716 130.603,6.462 131.095 C 6.177 131.646,6.000 134.138,6.000 137.595 L 6.000 143.200 4.480 143.200 C 2.049 143.200,2.000 143.365,2.000 151.480 L 2.000 158.800 1.000 158.800 L 0.000 158.800 0.000 200.000 L 0.000 241.200 1.000 241.200 L 2.000 241.200 2.000 248.520 C 2.000 256.635,2.049 256.800,4.480 256.800 L 6.000 256.800 6.000 262.405 C 6.000 265.862,6.177 268.354,6.462 268.905 C 6.716 269.397,7.045 270.070,7.192 270.400 C 7.340 270.730,8.032 271.257,8.730 271.572 L 10.000 272.144 10.000 276.029 C 10.000 280.256,10.080 280.400,12.433 280.400 L 13.600 280.400 13.605 283.300 C 13.614 287.690,13.762 288.000,15.847 288.000 L 17.600 288.000 17.600 291.367 C 17.600 295.805,17.694 296.000,19.843 296.000 L 21.600 296.000 21.600 299.610 C 21.600 303.532,21.918 304.000,24.584 304.000 C 25.470 304.000,25.522 304.156,25.662 307.236 C 25.824 310.808,26.335 311.600,28.476 311.600 C 29.558 311.600,29.600 311.675,29.600 313.600 L 29.600 315.600 31.358 315.600 L 33.117 315.600 33.401 318.814 C 33.716 322.371,34.213 323.200,36.029 323.200 C 37.039 323.200,37.201 323.352,37.205 324.300 C 37.218 326.751,37.561 327.200,39.425 327.200 L 41.156 327.200 41.278 329.100 L 41.400 331.000 43.300 331.122 L 45.200 331.244 45.200 333.222 L 45.200 335.200 47.200 335.200 L 49.200 335.200 49.200 337.200 C 49.200 338.918,49.310 339.200,49.982 339.200 C 50.850 339.200,52.800 340.955,52.800 341.737 C 52.800 343.020,56.980 347.200,58.263 347.200 C 59.045 347.200,60.800 349.150,60.800 350.018 C 60.800 350.690,61.082 350.800,62.800 350.800 L 64.800 350.800 64.800 352.800 L 64.800 354.800 66.778 354.800 L 68.756 354.800 68.878 356.700 L 69.000 358.600 70.900 358.722 L 72.800 358.844 72.800 360.608 L 72.800 362.372 74.785 362.636 C 76.590 362.875,76.811 363.020,77.209 364.228 C 77.679 365.651,80.338 366.800,83.162 366.800 C 84.363 366.800,84.400 366.854,84.400 368.600 L 84.400 370.400 86.400 370.400 C 88.356 370.400,88.400 370.427,88.400 371.600 C 88.400 373.692,89.562 374.400,93.000 374.400 C 95.912 374.400,96.000 374.429,96.000 375.374 C 96.000 378.086,96.456 378.400,100.390 378.400 L 104.000 378.400 104.000 380.157 C 104.000 382.306,104.195 382.400,108.633 382.400 L 112.000 382.400 112.000 384.153 C 112.000 386.238,112.310 386.386,116.700 386.395 L 119.600 386.400 119.600 387.567 C 119.600 389.920,119.744 390.000,123.971 390.000 L 127.856 390.000 128.428 391.270 C 128.743 391.968,129.270 392.660,129.600 392.808 C 129.930 392.955,130.603 393.284,131.095 393.538 C 131.646 393.823,134.138 394.000,137.595 394.000 L 143.200 394.000 143.200 395.757 C 143.200 398.037,143.059 398.000,151.633 398.000 L 158.800 398.000 158.800 399.000 L 158.800 400.000 200.000 400.000 L 241.200 400.000 241.200 399.009 L 241.200 398.017 248.895 397.909 C 256.141 397.806,256.598 397.755,256.738 397.026 C 257.179 394.731,258.832 394.000,263.575 394.000 C 266.147 394.000,268.387 393.806,268.905 393.538 C 269.397 393.284,270.070 392.955,270.400 392.808 C 270.730 392.660,271.257 391.968,271.572 391.270 L 272.144 390.000 276.029 390.000 C 280.256 390.000,280.400 389.920,280.400 387.567 L 280.400 386.400 283.300 386.395 C 287.690 386.386,288.000 386.238,288.000 384.153 L 288.000 382.400 291.367 382.400 C 295.805 382.400,296.000 382.306,296.000 380.157 L 296.000 378.400 299.610 378.400 C 303.544 378.400,304.000 378.086,304.000 375.374 C 304.000 374.429,304.088 374.400,307.000 374.400 C 310.438 374.400,311.600 373.692,311.600 371.600 C 311.600 370.427,311.644 370.400,313.600 370.400 L 315.600 370.400 315.600 368.600 C 315.600 366.854,315.637 366.800,316.838 366.800 C 319.662 366.800,322.321 365.651,322.791 364.228 C 323.189 363.020,323.410 362.875,325.215 362.636 L 327.200 362.372 327.200 360.608 L 327.200 358.844 329.100 358.722 L 331.000 358.600 331.122 356.700 L 331.244 354.800 333.222 354.800 L 335.200 354.800 335.200 352.800 L 335.200 350.800 337.200 350.800 C 338.918 350.800,339.200 350.690,339.200 350.018 C 339.200 349.150,340.955 347.200,341.737 347.200 C 343.020 347.200,347.200 343.020,347.200 341.737 C 347.200 340.955,349.150 339.200,350.018 339.200 C 350.690 339.200,350.800 338.918,350.800 337.200 L 350.800 335.200 352.800 335.200 L 354.800 335.200 354.800 333.222 L 354.800 331.244 356.700 331.122 L 358.600 331.000 358.722 329.100 L 358.844 327.200 360.575 327.200 C 362.439 327.200,362.782 326.751,362.795 324.300 C 362.799 323.352,362.961 323.200,363.971 323.200 C 365.787 323.200,366.284 322.371,366.599 318.814 L 366.883 315.600 368.642 315.600 L 370.400 315.600 370.400 313.600 C 370.400 311.675,370.442 311.600,371.524 311.600 C 373.665 311.600,374.176 310.808,374.338 307.236 C 374.478 304.156,374.530 304.000,375.416 304.000 C 378.082 304.000,378.400 303.532,378.400 299.610 L 378.400 296.000 380.157 296.000 C 382.306 296.000,382.400 295.805,382.400 291.367 L 382.400 288.000 384.153 288.000 C 386.238 288.000,386.386 287.690,386.395 283.300 L 386.400 280.400 387.567 280.400 C 389.920 280.400,390.000 280.256,390.000 276.029 L 390.000 272.144 391.270 271.572 C 391.968 271.257,392.660 270.730,392.808 270.400 C 392.955 270.070,393.284 269.397,393.538 268.905 C 393.823 268.354,394.000 265.862,394.000 262.405 L 394.000 256.800 395.520 256.800 C 397.951 256.800,398.000 256.635,398.000 248.520 L 398.000 241.200 399.000 241.200 L 400.000 241.200 400.000 200.000 L 400.000 158.800 399.000 158.800 L 398.000 158.800 398.000 151.480 C 398.000 143.365,397.951 143.200,395.520 143.200 L 394.000 143.200 394.000 137.400 C 394.000 134.210,393.865 131.599,393.700 131.597 C 393.535 131.596,393.093 131.056,392.719 130.397 C 392.344 129.739,391.579 128.991,391.019 128.736 C 390.024 128.282,390.000 128.176,390.000 124.179 C 390.000 119.724,389.934 119.600,387.567 119.600 L 386.400 119.600 386.395 116.700 C 386.386 112.310,386.238 112.000,384.153 112.000 L 382.400 112.000 382.400 108.633 C 382.400 104.195,382.306 104.000,380.157 104.000 L 378.400 104.000 378.400 100.390 C 378.400 96.468,378.082 96.000,375.416 96.000 C 374.530 96.000,374.478 95.844,374.338 92.764 C 374.176 89.192,373.665 88.400,371.524 88.400 C 370.442 88.400,370.400 88.325,370.400 86.400 L 370.400 84.400 368.642 84.400 L 366.883 84.400 366.599 81.186 C 366.284 77.629,365.787 76.800,363.971 76.800 C 362.961 76.800,362.799 76.648,362.795 75.700 C 362.782 73.249,362.439 72.800,360.575 72.800 L 358.844 72.800 358.722 70.900 L 358.600 69.000 356.700 68.878 L 354.800 68.756 354.800 66.778 L 354.800 64.800 352.800 64.800 L 350.800 64.800 350.800 62.800 C 350.800 61.082,350.690 60.800,350.018 60.800 C 349.150 60.800,347.200 59.045,347.200 58.263 C 347.200 56.980,343.020 52.800,341.737 52.800 C 340.955 52.800,339.200 50.850,339.200 49.982 C 339.200 49.310,338.918 49.200,337.200 49.200 L 335.200 49.200 335.200 47.200 L 335.200 45.200 333.222 45.200 L 331.244 45.200 331.122 43.300 L 331.000 41.400 329.100 41.278 L 327.200 41.156 327.200 39.568 C 327.200 37.873,326.349 37.200,324.205 37.200 C 323.485 37.200,323.155 36.874,322.807 35.821 C 322.320 34.347,319.710 33.200,316.838 33.200 C 315.637 33.200,315.600 33.146,315.600 31.400 L 315.600 29.600 313.600 29.600 C 311.675 29.600,311.600 29.558,311.600 28.476 C 311.600 26.335,310.808 25.824,307.236 25.662 C 304.156 25.522,304.000 25.470,304.000 24.584 C 304.000 21.918,303.532 21.600,299.610 21.600 L 296.000 21.600 296.000 19.843 C 296.000 17.694,295.805 17.600,291.367 17.600 L 288.000 17.600 288.000 15.850 C 288.000 13.818,287.511 13.600,282.950 13.600 L 280.400 13.600 280.400 12.433 C 280.400 10.080,280.256 10.000,276.029 10.000 L 272.144 10.000 271.572 8.730 C 271.257 8.032,270.730 7.340,270.400 7.192 C 270.070 7.045,269.397 6.716,268.905 6.462 C 268.354 6.177,265.862 6.000,262.405 6.000 L 256.800 6.000 256.800 4.480 C 256.800 2.049,256.635 2.000,248.520 2.000 L 241.200 2.000 241.200 1.000 L 241.200 0.000 200.000 0.000 L 158.800 0.000 158.800 1.000 M246.140 68.659 L 249.200 68.917 249.200 200.020 L 249.200 331.123 245.100 331.388 C 242.845 331.533,238.390 331.596,235.200 331.526 L 229.400 331.400 229.200 281.982 C 228.976 226.620,229.230 230.890,226.104 230.022 C 223.917 229.415,207.096 229.464,206.480 230.080 C 206.216 230.344,206.000 231.154,206.000 231.880 C 206.000 233.116,205.913 233.200,204.633 233.200 C 202.367 233.200,202.000 233.505,202.000 235.390 C 202.000 237.086,201.992 237.096,200.342 237.317 C 198.194 237.605,198.013 237.960,198.006 241.900 L 198.000 245.200 196.424 245.200 C 194.448 245.200,194.368 245.341,194.102 249.326 C 193.865 252.867,193.668 253.185,191.700 253.194 L 190.400 253.200 190.400 257.000 L 190.400 260.800 189.033 260.800 C 186.467 260.800,186.400 260.908,186.400 265.021 L 186.400 268.756 184.500 268.878 L 182.600 269.000 182.485 272.700 L 182.370 276.400 181.014 276.400 C 178.834 276.400,178.400 277.169,178.400 281.029 L 178.400 284.400 176.790 284.400 C 174.801 284.400,174.400 285.203,174.400 289.183 C 174.400 292.147,174.209 292.400,171.967 292.400 L 170.800 292.400 170.800 294.950 C 170.800 299.392,170.571 299.939,168.654 300.079 L 167.000 300.200 166.886 304.079 L 166.772 307.957 164.886 308.079 L 163.000 308.200 162.885 311.900 L 162.770 315.600 161.559 315.600 C 159.080 315.600,158.800 316.048,158.800 320.014 L 158.800 323.600 157.047 323.600 C 154.966 323.600,154.814 323.915,154.805 328.241 L 154.800 331.083 151.740 331.341 C 147.522 331.698,127.028 331.580,128.942 331.210 C 130.960 330.820,131.187 330.374,131.194 326.767 L 131.200 323.734 133.100 323.367 L 135.000 323.000 135.115 319.300 L 135.230 315.600 136.972 315.600 C 139.088 315.600,139.200 315.380,139.200 311.211 L 139.200 308.087 141.100 307.740 L 143.000 307.394 143.115 303.697 L 143.230 300.000 144.968 300.000 C 146.925 300.000,147.185 299.593,147.195 296.500 C 147.198 295.297,147.367 294.800,147.771 294.800 C 148.085 294.800,148.713 294.305,149.167 293.700 C 149.620 293.095,150.173 292.383,150.396 292.117 C 150.618 291.851,150.800 290.816,150.800 289.817 C 150.800 288.014,150.811 288.000,152.171 288.000 C 154.338 288.000,154.800 287.221,154.800 283.571 L 154.800 280.400 156.171 280.400 C 158.366 280.400,158.800 279.637,158.800 275.771 L 158.800 272.400 160.557 272.400 C 162.693 272.400,162.800 272.189,162.800 267.967 L 162.800 264.800 164.100 264.794 C 166.309 264.783,166.534 264.408,166.724 260.430 L 166.898 256.800 168.649 256.800 L 170.400 256.800 170.400 254.600 C 170.400 252.569,170.471 252.400,171.324 252.400 C 173.331 252.400,174.369 250.403,174.390 246.500 L 174.400 244.800 176.010 244.800 C 178.003 244.800,178.400 243.999,178.400 239.974 L 178.400 237.200 180.157 237.200 C 182.364 237.200,182.400 237.106,182.400 231.400 C 182.400 225.261,182.647 225.600,178.179 225.600 L 174.444 225.600 174.322 223.700 L 174.200 221.800 172.322 221.679 L 170.444 221.558 170.322 219.895 C 170.178 217.931,169.688 217.702,165.500 217.640 L 162.800 217.600 162.800 215.843 C 162.800 213.901,162.447 213.600,160.167 213.600 C 158.813 213.600,158.800 213.582,158.800 211.800 L 158.800 210.000 156.800 210.000 L 154.800 210.000 154.800 208.000 L 154.800 206.000 152.815 206.000 L 150.830 206.000 150.715 202.301 L 150.600 198.602 148.952 198.255 L 147.304 197.908 147.054 195.512 C 146.719 192.309,146.089 191.111,144.500 190.656 L 143.200 190.284 143.200 187.116 C 143.200 183.080,142.852 182.400,140.786 182.400 L 139.200 182.400 139.176 172.900 C 139.146 160.881,139.035 160.171,136.873 158.219 L 135.200 156.707 135.200 153.553 C 135.200 150.526,135.237 150.400,136.124 150.400 C 138.789 150.400,139.195 148.251,139.198 134.108 L 139.200 123.615 140.100 123.423 C 140.595 123.318,141.359 123.177,141.797 123.111 C 142.846 122.952,143.094 121.671,143.153 116.123 L 143.200 111.646 144.900 111.523 L 146.600 111.400 146.954 107.713 L 147.307 104.026 148.954 103.701 L 150.600 103.377 150.715 99.688 L 150.830 96.000 152.815 96.000 L 154.800 96.000 154.800 94.022 L 154.800 92.044 156.700 91.922 L 158.600 91.800 158.722 89.900 L 158.844 88.000 160.575 88.000 C 162.402 88.000,162.781 87.539,162.795 85.300 C 162.799 84.554,163.022 84.399,164.100 84.394 C 165.900 84.385,166.260 84.054,166.586 82.100 L 166.870 80.400 168.635 80.400 L 170.400 80.400 170.400 78.414 L 170.400 76.429 174.300 76.314 L 178.200 76.200 178.322 74.300 L 178.444 72.400 183.742 72.400 C 189.576 72.400,190.000 72.246,190.000 70.127 L 190.000 68.814 199.900 68.700 C 222.794 68.435,243.283 68.417,246.140 68.659 M188.800 84.691 C 187.373 84.956,186.919 85.440,186.624 87.014 C 186.369 88.374,186.326 88.400,184.382 88.400 L 182.400 88.400 182.400 90.200 C 182.400 91.896,182.336 92.000,181.300 92.005 C 178.849 92.018,178.400 92.361,178.400 94.225 L 178.400 95.956 176.500 96.078 L 174.600 96.200 174.478 98.100 L 174.356 100.000 172.578 100.000 L 170.800 100.000 170.800 102.000 L 170.800 104.000 169.280 104.000 C 167.063 104.000,166.800 104.475,166.800 108.480 L 166.800 112.000 165.224 112.000 C 163.104 112.000,163.030 112.196,162.800 118.385 L 162.600 123.769 161.280 124.038 C 158.833 124.537,158.838 124.490,158.817 150.274 C 158.798 174.766,158.762 174.400,161.179 174.400 L 162.778 174.400 162.889 180.100 L 163.000 185.800 164.886 186.164 L 166.772 186.529 166.886 190.164 L 167.000 193.800 168.595 193.930 C 170.457 194.081,170.786 194.466,170.794 196.500 L 170.800 198.000 172.600 198.000 L 174.400 198.000 174.400 199.605 C 174.400 200.488,174.561 201.523,174.757 201.905 C 174.953 202.287,175.311 203.099,175.553 203.709 C 175.854 204.471,176.371 204.894,177.204 205.061 C 177.871 205.194,178.514 205.460,178.632 205.652 C 178.750 205.843,179.647 206.000,180.624 206.000 L 182.400 206.000 182.400 207.800 L 182.400 209.600 184.400 209.600 L 186.400 209.600 186.400 210.971 C 186.400 213.364,186.991 213.600,192.997 213.600 L 198.336 213.600 198.603 214.814 C 199.144 217.277,199.717 217.388,212.582 217.513 C 226.547 217.648,227.923 217.439,228.700 215.065 C 229.096 213.853,229.181 199.934,229.101 149.065 L 229.000 84.600 209.400 84.553 C 198.620 84.527,189.350 84.589,188.800 84.691 " stroke="none" fill="#ffffff" fill-rule="evenodd"></path><path id="path1" d="M158.800 1.000 L 158.800 2.000 151.480 2.000 C 143.365 2.000,143.200 2.049,143.200 4.480 L 143.200 6.000 137.595 6.000 C 134.138 6.000,131.646 6.177,131.095 6.462 C 130.603 6.716,129.930 7.045,129.600 7.192 C 129.270 7.340,128.743 8.032,128.428 8.730 L 127.856 10.000 123.971 10.000 C 119.744 10.000,119.600 10.080,119.600 12.433 L 119.600 13.600 117.050 13.600 C 112.489 13.600,112.000 13.818,112.000 15.850 L 112.000 17.600 108.633 17.600 C 104.195 17.600,104.000 17.694,104.000 19.843 L 104.000 21.600 100.390 21.600 C 96.468 21.600,96.000 21.918,96.000 24.584 C 96.000 25.470,95.844 25.522,92.764 25.662 C 89.192 25.824,88.400 26.335,88.400 28.476 C 88.400 29.558,88.325 29.600,86.400 29.600 L 84.400 29.600 84.400 31.400 C 84.400 33.146,84.363 33.200,83.162 33.200 C 80.290 33.200,77.680 34.347,77.193 35.821 C 76.845 36.874,76.515 37.200,75.795 37.200 C 73.651 37.200,72.800 37.873,72.800 39.568 L 72.800 41.156 70.900 41.278 L 69.000 41.400 68.878 43.300 L 68.756 45.200 66.778 45.200 L 64.800 45.200 64.800 47.200 L 64.800 49.200 62.800 49.200 C 61.082 49.200,60.800 49.310,60.800 49.982 C 60.800 50.984,59.168 52.621,57.834 52.956 C 57.168 53.123,56.800 53.491,56.800 53.989 C 56.800 54.990,54.990 56.800,53.989 56.800 C 53.491 56.800,53.123 57.168,52.956 57.834 C 52.621 59.168,50.984 60.800,49.982 60.800 C 49.310 60.800,49.200 61.082,49.200 62.800 L 49.200 64.800 47.200 64.800 L 45.200 64.800 45.200 66.778 L 45.200 68.756 43.300 68.878 L 41.400 69.000 41.278 70.900 L 41.156 72.800 39.425 72.800 C 37.561 72.800,37.218 73.249,37.205 75.700 C 37.201 76.648,37.039 76.800,36.029 76.800 C 34.213 76.800,33.716 77.629,33.401 81.186 L 33.117 84.400 31.358 84.400 L 29.600 84.400 29.600 86.400 C 29.600 88.325,29.558 88.400,28.476 88.400 C 26.335 88.400,25.824 89.192,25.662 92.764 C 25.522 95.844,25.470 96.000,24.584 96.000 C 21.918 96.000,21.600 96.468,21.600 100.390 L 21.600 104.000 19.843 104.000 C 17.694 104.000,17.600 104.195,17.600 108.633 L 17.600 112.000 15.847 112.000 C 13.762 112.000,13.614 112.310,13.605 116.700 L 13.600 119.600 12.433 119.600 C 10.080 119.600,10.000 119.744,10.000 123.971 L 10.000 127.856 8.730 128.428 C 8.032 128.743,7.340 129.270,7.192 129.600 C 7.045 129.930,6.716 130.603,6.462 131.095 C 6.177 131.646,6.000 134.138,6.000 137.595 L 6.000 143.200 4.480 143.200 C 2.049 143.200,2.000 143.365,2.000 151.480 L 2.000 158.800 1.000 158.800 L 0.000 158.800 0.000 200.000 L 0.000 241.200 1.000 241.200 L 2.000 241.200 2.000 248.520 C 2.000 256.635,2.049 256.800,4.480 256.800 L 6.000 256.800 6.000 262.405 C 6.000 265.862,6.177 268.354,6.462 268.905 C 6.716 269.397,7.045 270.070,7.192 270.400 C 7.340 270.730,8.032 271.257,8.730 271.572 L 10.000 272.144 10.000 276.029 C 10.000 280.256,10.080 280.400,12.433 280.400 L 13.600 280.400 13.605 283.300 C 13.614 287.690,13.762 288.000,15.847 288.000 L 17.600 288.000 17.600 291.367 C 17.600 295.805,17.694 296.000,19.843 296.000 L 21.600 296.000 21.600 299.610 C 21.600 303.532,21.918 304.000,24.584 304.000 C 25.470 304.000,25.522 304.156,25.662 307.236 C 25.824 310.808,26.335 311.600,28.476 311.600 C 29.558 311.600,29.600 311.675,29.600 313.600 L 29.600 315.600 31.358 315.600 L 33.117 315.600 33.401 318.814 C 33.716 322.371,34.213 323.200,36.029 323.200 C 37.039 323.200,37.201 323.352,37.205 324.300 C 37.218 326.751,37.561 327.200,39.425 327.200 L 41.156 327.200 41.278 329.100 L 41.400 331.000 43.300 331.122 L 45.200 331.244 45.200 333.222 L 45.200 335.200 47.200 335.200 L 49.200 335.200 49.200 337.200 C 49.200 338.918,49.310 339.200,49.982 339.200 C 50.850 339.200,52.800 340.955,52.800 341.737 C 52.800 343.020,56.980 347.200,58.263 347.200 C 59.045 347.200,60.800 349.150,60.800 350.018 C 60.800 350.690,61.082 350.800,62.800 350.800 L 64.800 350.800 64.800 352.800 L 64.800 354.800 66.778 354.800 L 68.756 354.800 68.878 356.700 L 69.000 358.600 70.900 358.722 L 72.800 358.844 72.800 360.608 L 72.800 362.372 74.785 362.636 C 76.590 362.875,76.811 363.020,77.209 364.228 C 77.679 365.651,80.338 366.800,83.162 366.800 C 84.363 366.800,84.400 366.854,84.400 368.600 L 84.400 370.400 86.400 370.400 C 88.356 370.400,88.400 370.427,88.400 371.600 C 88.400 373.692,89.562 374.400,93.000 374.400 C 95.912 374.400,96.000 374.429,96.000 375.374 C 96.000 378.086,96.456 378.400,100.390 378.400 L 104.000 378.400 104.000 380.157 C 104.000 382.306,104.195 382.400,108.633 382.400 L 112.000 382.400 112.000 384.153 C 112.000 386.238,112.310 386.386,116.700 386.395 L 119.600 386.400 119.600 387.567 C 119.600 389.920,119.744 390.000,123.971 390.000 L 127.856 390.000 128.428 391.270 C 128.743 391.968,129.270 392.660,129.600 392.808 C 129.930 392.955,130.603 393.284,131.095 393.538 C 131.646 393.823,134.138 394.000,137.595 394.000 L 143.200 394.000 143.200 395.757 C 143.200 398.037,143.059 398.000,151.633 398.000 L 158.800 398.000 158.800 399.000 L 158.800 400.000 200.000 400.000 L 241.200 400.000 241.200 399.009 L 241.200 398.017 248.895 397.909 C 256.141 397.806,256.598 397.755,256.738 397.026 C 257.179 394.731,258.832 394.000,263.575 394.000 C 266.147 394.000,268.387 393.806,268.905 393.538 C 269.397 393.284,270.070 392.955,270.400 392.808 C 270.730 392.660,271.257 391.968,271.572 391.270 L 272.144 390.000 276.029 390.000 C 280.256 390.000,280.400 389.920,280.400 387.567 L 280.400 386.400 283.300 386.395 C 287.690 386.386,288.000 386.238,288.000 384.153 L 288.000 382.400 291.367 382.400 C 295.805 382.400,296.000 382.306,296.000 380.157 L 296.000 378.400 299.610 378.400 C 303.544 378.400,304.000 378.086,304.000 375.374 C 304.000 374.429,304.088 374.400,307.000 374.400 C 310.438 374.400,311.600 373.692,311.600 371.600 C 311.600 370.427,311.644 370.400,313.600 370.400 L 315.600 370.400 315.600 368.600 C 315.600 366.854,315.637 366.800,316.838 366.800 C 319.662 366.800,322.321 365.651,322.791 364.228 C 323.189 363.020,323.410 362.875,325.215 362.636 L 327.200 362.372 327.200 360.608 L 327.200 358.844 329.100 358.722 L 331.000 358.600 331.122 356.700 L 331.244 354.800 333.222 354.800 L 335.200 354.800 335.200 352.800 L 335.200 350.800 337.200 350.800 C 338.918 350.800,339.200 350.690,339.200 350.018 C 339.200 349.150,340.955 347.200,341.737 347.200 C 343.020 347.200,347.200 343.020,347.200 341.737 C 347.200 340.955,349.150 339.200,350.018 339.200 C 350.690 339.200,350.800 338.918,350.800 337.200 L 350.800 335.200 352.800 335.200 L 354.800 335.200 354.800 333.222 L 354.800 331.244 356.700 331.122 L 358.600 331.000 358.722 329.100 L 358.844 327.200 360.575 327.200 C 362.439 327.200,362.782 326.751,362.795 324.300 C 362.799 323.352,362.961 323.200,363.971 323.200 C 365.787 323.200,366.284 322.371,366.599 318.814 L 366.883 315.600 368.642 315.600 L 370.400 315.600 370.400 313.600 C 370.400 311.675,370.442 311.600,371.524 311.600 C 373.665 311.600,374.176 310.808,374.338 307.236 C 374.478 304.156,374.530 304.000,375.416 304.000 C 378.082 304.000,378.400 303.532,378.400 299.610 L 378.400 296.000 380.157 296.000 C 382.306 296.000,382.400 295.805,382.400 291.367 L 382.400 288.000 384.153 288.000 C 386.238 288.000,386.386 287.690,386.395 283.300 L 386.400 280.400 387.567 280.400 C 389.920 280.400,390.000 280.256,390.000 276.029 L 390.000 272.144 391.270 271.572 C 391.968 271.257,392.660 270.730,392.808 270.400 C 392.955 270.070,393.284 269.397,393.538 268.905 C 393.823 268.354,394.000 265.862,394.000 262.405 L 394.000 256.800 395.520 256.800 C 397.951 256.800,398.000 256.635,398.000 248.520 L 398.000 241.200 399.000 241.200 L 400.000 241.200 400.000 200.000 L 400.000 158.800 399.000 158.800 L 398.000 158.800 398.000 151.480 C 398.000 143.365,397.951 143.200,395.520 143.200 L 394.000 143.200 394.000 137.400 C 394.000 134.210,393.865 131.599,393.700 131.597 C 393.535 131.596,393.093 131.056,392.719 130.397 C 392.344 129.739,391.579 128.991,391.019 128.736 C 390.024 128.282,390.000 128.176,390.000 124.179 C 390.000 119.724,389.934 119.600,387.567 119.600 L 386.400 119.600 386.395 116.700 C 386.386 112.310,386.238 112.000,384.153 112.000 L 382.400 112.000 382.400 108.633 C 382.400 104.195,382.306 104.000,380.157 104.000 L 378.400 104.000 378.400 100.390 C 378.400 96.468,378.082 96.000,375.416 96.000 C 374.530 96.000,374.478 95.844,374.338 92.764 C 374.176 89.192,373.665 88.400,371.524 88.400 C 370.442 88.400,370.400 88.325,370.400 86.400 L 370.400 84.400 368.642 84.400 L 366.883 84.400 366.599 81.186 C 366.284 77.629,365.787 76.800,363.971 76.800 C 362.961 76.800,362.799 76.648,362.795 75.700 C 362.782 73.249,362.439 72.800,360.575 72.800 L 358.844 72.800 358.722 70.900 L 358.600 69.000 356.700 68.878 L 354.800 68.756 354.800 66.778 L 354.800 64.800 352.800 64.800 L 350.800 64.800 350.800 62.800 C 350.800 61.082,350.690 60.800,350.018 60.800 C 349.150 60.800,347.200 59.045,347.200 58.263 C 347.200 56.980,343.020 52.800,341.737 52.800 C 340.955 52.800,339.200 50.850,339.200 49.982 C 339.200 49.310,338.918 49.200,337.200 49.200 L 335.200 49.200 335.200 47.200 L 335.200 45.200 333.222 45.200 L 331.244 45.200 331.122 43.300 L 331.000 41.400 329.100 41.278 L 327.200 41.156 327.200 39.568 C 327.200 37.873,326.349 37.200,324.205 37.200 C 323.485 37.200,323.155 36.874,322.807 35.821 C 322.320 34.347,319.710 33.200,316.838 33.200 C 315.637 33.200,315.600 33.146,315.600 31.400 L 315.600 29.600 313.600 29.600 C 311.675 29.600,311.600 29.558,311.600 28.476 C 311.600 26.335,310.808 25.824,307.236 25.662 C 304.156 25.522,304.000 25.470,304.000 24.584 C 304.000 21.918,303.532 21.600,299.610 21.600 L 296.000 21.600 296.000 19.843 C 296.000 17.694,295.805 17.600,291.367 17.600 L 288.000 17.600 288.000 15.850 C 288.000 13.818,287.511 13.600,282.950 13.600 L 280.400 13.600 280.400 12.433 C 280.400 10.080,280.256 10.000,276.029 10.000 L 272.144 10.000 271.572 8.730 C 271.257 8.032,270.730 7.340,270.400 7.192 C 270.070 7.045,269.397 6.716,268.905 6.462 C 268.354 6.177,265.862 6.000,262.405 6.000 L 256.800 6.000 256.800 4.480 C 256.800 2.049,256.635 2.000,248.520 2.000 L 241.200 2.000 241.200 1.000 L 241.200 0.000 200.000 0.000 L 158.800 0.000 158.800 1.000 M246.140 68.659 L 249.200 68.917 249.200 200.020 L 249.200 331.123 245.100 331.388 C 242.845 331.533,238.390 331.596,235.200 331.526 L 229.400 331.400 229.200 281.982 C 228.976 226.620,229.230 230.890,226.104 230.022 C 223.917 229.415,207.096 229.464,206.480 230.080 C 206.216 230.344,206.000 231.154,206.000 231.880 C 206.000 233.116,205.913 233.200,204.633 233.200 C 202.367 233.200,202.000 233.505,202.000 235.390 C 202.000 237.086,201.992 237.096,200.342 237.317 C 198.194 237.605,198.013 237.960,198.006 241.900 L 198.000 245.200 196.424 245.200 C 194.448 245.200,194.368 245.341,194.102 249.326 C 193.865 252.867,193.668 253.185,191.700 253.194 L 190.400 253.200 190.400 257.000 L 190.400 260.800 189.033 260.800 C 186.467 260.800,186.400 260.908,186.400 265.021 L 186.400 268.756 184.500 268.878 L 182.600 269.000 182.485 272.700 L 182.370 276.400 181.014 276.400 C 178.834 276.400,178.400 277.169,178.400 281.029 L 178.400 284.400 176.790 284.400 C 174.801 284.400,174.400 285.203,174.400 289.183 C 174.400 292.147,174.209 292.400,171.967 292.400 L 170.800 292.400 170.800 294.950 C 170.800 299.392,170.571 299.939,168.654 300.079 L 167.000 300.200 166.886 304.079 L 166.772 307.957 164.886 308.079 L 163.000 308.200 162.885 311.900 L 162.770 315.600 161.559 315.600 C 159.080 315.600,158.800 316.048,158.800 320.014 L 158.800 323.600 157.047 323.600 C 154.966 323.600,154.814 323.915,154.805 328.241 L 154.800 331.083 151.740 331.341 C 147.522 331.698,127.028 331.580,128.942 331.210 C 130.960 330.820,131.187 330.374,131.194 326.767 L 131.200 323.734 133.100 323.367 L 135.000 323.000 135.115 319.300 L 135.230 315.600 136.972 315.600 C 139.088 315.600,139.200 315.380,139.200 311.211 L 139.200 308.087 141.100 307.740 L 143.000 307.394 143.115 303.697 L 143.230 300.000 144.968 300.000 C 146.925 300.000,147.185 299.593,147.195 296.500 C 147.198 295.297,147.367 294.800,147.771 294.800 C 148.085 294.800,148.713 294.305,149.167 293.700 C 149.620 293.095,150.173 292.383,150.396 292.117 C 150.618 291.851,150.800 290.816,150.800 289.817 C 150.800 288.014,150.811 288.000,152.171 288.000 C 154.338 288.000,154.800 287.221,154.800 283.571 L 154.800 280.400 156.171 280.400 C 158.366 280.400,158.800 279.637,158.800 275.771 L 158.800 272.400 160.557 272.400 C 162.693 272.400,162.800 272.189,162.800 267.967 L 162.800 264.800 164.100 264.794 C 166.309 264.783,166.534 264.408,166.724 260.430 L 166.898 256.800 168.649 256.800 L 170.400 256.800 170.400 254.600 C 170.400 252.569,170.471 252.400,171.324 252.400 C 173.331 252.400,174.369 250.403,174.390 246.500 L 174.400 244.800 176.010 244.800 C 178.003 244.800,178.400 243.999,178.400 239.974 L 178.400 237.200 180.157 237.200 C 182.364 237.200,182.400 237.106,182.400 231.400 C 182.400 225.261,182.647 225.600,178.179 225.600 L 174.444 225.600 174.322 223.700 L 174.200 221.800 172.322 221.679 L 170.444 221.558 170.322 219.895 C 170.178 217.931,169.688 217.702,165.500 217.640 L 162.800 217.600 162.800 215.843 C 162.800 213.901,162.447 213.600,160.167 213.600 C 158.813 213.600,158.800 213.582,158.800 211.800 L 158.800 210.000 156.800 210.000 L 154.800 210.000 154.800 208.000 L 154.800 206.000 152.815 206.000 L 150.830 206.000 150.715 202.301 L 150.600 198.602 148.952 198.255 L 147.304 197.908 147.054 195.512 C 146.719 192.309,146.089 191.111,144.500 190.656 L 143.200 190.284 143.200 187.116 C 143.200 183.080,142.852 182.400,140.786 182.400 L 139.200 182.400 139.176 172.900 C 139.146 160.881,139.035 160.171,136.873 158.219 L 135.200 156.707 135.200 153.553 C 135.200 150.526,135.237 150.400,136.124 150.400 C 138.789 150.400,139.195 148.251,139.198 134.108 L 139.200 123.615 140.100 123.423 C 140.595 123.318,141.359 123.177,141.797 123.111 C 142.846 122.952,143.094 121.671,143.153 116.123 L 143.200 111.646 144.900 111.523 L 146.600 111.400 146.954 107.713 L 147.307 104.026 148.954 103.701 L 150.600 103.377 150.715 99.688 L 150.830 96.000 152.815 96.000 L 154.800 96.000 154.800 94.022 L 154.800 92.044 156.700 91.922 L 158.600 91.800 158.722 89.900 L 158.844 88.000 160.575 88.000 C 162.402 88.000,162.781 87.539,162.795 85.300 C 162.799 84.554,163.022 84.399,164.100 84.394 C 165.900 84.385,166.260 84.054,166.586 82.100 L 166.870 80.400 168.635 80.400 L 170.400 80.400 170.400 78.414 L 170.400 76.429 174.300 76.314 L 178.200 76.200 178.322 74.300 L 178.444 72.400 183.742 72.400 C 189.576 72.400,190.000 72.246,190.000 70.127 L 190.000 68.814 199.900 68.700 C 222.794 68.435,243.283 68.417,246.140 68.659 M188.800 84.691 C 187.373 84.956,186.919 85.440,186.624 87.014 C 186.369 88.374,186.326 88.400,184.382 88.400 L 182.400 88.400 182.400 90.200 C 182.400 91.896,182.336 92.000,181.300 92.005 C 178.849 92.018,178.400 92.361,178.400 94.225 L 178.400 95.956 176.500 96.078 L 174.600 96.200 174.478 98.100 L 174.356 100.000 172.578 100.000 L 170.800 100.000 170.800 102.000 L 170.800 104.000 169.280 104.000 C 167.063 104.000,166.800 104.475,166.800 108.480 L 166.800 112.000 165.224 112.000 C 163.104 112.000,163.030 112.196,162.800 118.385 L 162.600 123.769 161.280 124.038 C 158.833 124.537,158.838 124.490,158.817 150.274 C 158.798 174.766,158.762 174.400,161.179 174.400 L 162.778 174.400 162.889 180.100 L 163.000 185.800 164.886 186.164 L 166.772 186.529 166.886 190.164 L 167.000 193.800 168.595 193.930 C 170.457 194.081,170.786 194.466,170.794 196.500 L 170.800 198.000 172.600 198.000 L 174.400 198.000 174.400 199.605 C 174.400 200.488,174.561 201.523,174.757 201.905 C 174.953 202.287,175.311 203.099,175.553 203.709 C 175.854 204.471,176.371 204.894,177.204 205.061 C 177.871 205.194,178.514 205.460,178.632 205.652 C 178.750 205.843,179.647 206.000,180.624 206.000 L 182.400 206.000 182.400 207.800 L 182.400 209.600 184.400 209.600 L 186.400 209.600 186.400 210.971 C 186.400 213.364,186.991 213.600,192.997 213.600 L 198.336 213.600 198.603 214.814 C 199.144 217.277,199.717 217.388,212.582 217.513 C 226.547 217.648,227.923 217.439,228.700 215.065 C 229.096 213.853,229.181 199.934,229.101 149.065 L 229.000 84.600 209.400 84.553 C 198.620 84.527,189.350 84.589,188.800 84.691 " stroke="none" fill="#ffffff" fill-rule="evenodd"></path><path id="path2" d="M158.800 1.000 L 158.800 2.000 151.480 2.000 C 143.365 2.000,143.200 2.049,143.200 4.480 L 143.200 6.000 137.595 6.000 C 134.138 6.000,131.646 6.177,131.095 6.462 C 130.603 6.716,129.930 7.045,129.600 7.192 C 129.270 7.340,128.743 8.032,128.428 8.730 L 127.856 10.000 123.971 10.000 C 119.744 10.000,119.600 10.080,119.600 12.433 L 119.600 13.600 117.050 13.600 C 112.489 13.600,112.000 13.818,112.000 15.850 L 112.000 17.600 108.633 17.600 C 104.195 17.600,104.000 17.694,104.000 19.843 L 104.000 21.600 100.390 21.600 C 96.468 21.600,96.000 21.918,96.000 24.584 C 96.000 25.470,95.844 25.522,92.764 25.662 C 89.192 25.824,88.400 26.335,88.400 28.476 C 88.400 29.558,88.325 29.600,86.400 29.600 L 84.400 29.600 84.400 31.400 C 84.400 33.146,84.363 33.200,83.162 33.200 C 80.290 33.200,77.680 34.347,77.193 35.821 C 76.845 36.874,76.515 37.200,75.795 37.200 C 73.651 37.200,72.800 37.873,72.800 39.568 L 72.800 41.156 70.900 41.278 L 69.000 41.400 68.878 43.300 L 68.756 45.200 66.778 45.200 L 64.800 45.200 64.800 47.200 L 64.800 49.200 62.800 49.200 C 61.082 49.200,60.800 49.310,60.800 49.982 C 60.800 50.984,59.168 52.621,57.834 52.956 C 57.168 53.123,56.800 53.491,56.800 53.989 C 56.800 54.990,54.990 56.800,53.989 56.800 C 53.491 56.800,53.123 57.168,52.956 57.834 C 52.621 59.168,50.984 60.800,49.982 60.800 C 49.310 60.800,49.200 61.082,49.200 62.800 L 49.200 64.800 47.200 64.800 L 45.200 64.800 45.200 66.778 L 45.200 68.756 43.300 68.878 L 41.400 69.000 41.278 70.900 L 41.156 72.800 39.425 72.800 C 37.561 72.800,37.218 73.249,37.205 75.700 C 37.201 76.648,37.039 76.800,36.029 76.800 C 34.213 76.800,33.716 77.629,33.401 81.186 L 33.117 84.400 31.358 84.400 L 29.600 84.400 29.600 86.400 C 29.600 88.325,29.558 88.400,28.476 88.400 C 26.335 88.400,25.824 89.192,25.662 92.764 C 25.522 95.844,25.470 96.000,24.584 96.000 C 21.918 96.000,21.600 96.468,21.600 100.390 L 21.600 104.000 19.843 104.000 C 17.694 104.000,17.600 104.195,17.600 108.633 L 17.600 112.000 15.847 112.000 C 13.762 112.000,13.614 112.310,13.605 116.700 L 13.600 119.600 12.433 119.600 C 10.080 119.600,10.000 119.744,10.000 123.971 L 10.000 127.856 8.730 128.428 C 8.032 128.743,7.340 129.270,7.192 129.600 C 7.045 129.930,6.716 130.603,6.462 131.095 C 6.177 131.646,6.000 134.138,6.000 137.595 L 6.000 143.200 4.480 143.200 C 2.049 143.200,2.000 143.365,2.000 151.480 L 2.000 158.800 1.000 158.800 L 0.000 158.800 0.000 200.000 L 0.000 241.200 1.000 241.200 L 2.000 241.200 2.000 248.520 C 2.000 256.635,2.049 256.800,4.480 256.800 L 6.000 256.800 6.000 262.405 C 6.000 265.862,6.177 268.354,6.462 268.905 C 6.716 269.397,7.045 270.070,7.192 270.400 C 7.340 270.730,8.032 271.257,8.730 271.572 L 10.000 272.144 10.000 276.029 C 10.000 280.256,10.080 280.400,12.433 280.400 L 13.600 280.400 13.605 283.300 C 13.614 287.690,13.762 288.000,15.847 288.000 L 17.600 288.000 17.600 291.367 C 17.600 295.805,17.694 296.000,19.843 296.000 L 21.600 296.000 21.600 299.610 C 21.600 303.532,21.918 304.000,24.584 304.000 C 25.470 304.000,25.522 304.156,25.662 307.236 C 25.824 310.808,26.335 311.600,28.476 311.600 C 29.558 311.600,29.600 311.675,29.600 313.600 L 29.600 315.600 31.358 315.600 L 33.117 315.600 33.401 318.814 C 33.716 322.371,34.213 323.200,36.029 323.200 C 37.039 323.200,37.201 323.352,37.205 324.300 C 37.218 326.751,37.561 327.200,39.425 327.200 L 41.156 327.200 41.278 329.100 L 41.400 331.000 43.300 331.122 L 45.200 331.244 45.200 333.222 L 45.200 335.200 47.200 335.200 L 49.200 335.200 49.200 337.200 C 49.200 338.918,49.310 339.200,49.982 339.200 C 50.850 339.200,52.800 340.955,52.800 341.737 C 52.800 343.020,56.980 347.200,58.263 347.200 C 59.045 347.200,60.800 349.150,60.800 350.018 C 60.800 350.690,61.082 350.800,62.800 350.800 L 64.800 350.800 64.800 352.800 L 64.800 354.800 66.778 354.800 L 68.756 354.800 68.878 356.700 L 69.000 358.600 70.900 358.722 L 72.800 358.844 72.800 360.608 L 72.800 362.372 74.785 362.636 C 76.590 362.875,76.811 363.020,77.209 364.228 C 77.679 365.651,80.338 366.800,83.162 366.800 C 84.363 366.800,84.400 366.854,84.400 368.600 L 84.400 370.400 86.400 370.400 C 88.356 370.400,88.400 370.427,88.400 371.600 C 88.400 373.692,89.562 374.400,93.000 374.400 C 95.912 374.400,96.000 374.429,96.000 375.374 C 96.000 378.086,96.456 378.400,100.390 378.400 L 104.000 378.400 104.000 380.157 C 104.000 382.306,104.195 382.400,108.633 382.400 L 112.000 382.400 112.000 384.153 C 112.000 386.238,112.310 386.386,116.700 386.395 L 119.600 386.400 119.600 387.567 C 119.600 389.920,119.744 390.000,123.971 390.000 L 127.856 390.000 128.428 391.270 C 128.743 391.968,129.270 392.660,129.600 392.808 C 129.930 392.955,130.603 393.284,131.095 393.538 C 131.646 393.823,134.138 394.000,137.595 394.000 L 143.200 394.000 143.200 395.757 C 143.200 398.037,143.059 398.000,151.633 398.000 L 158.800 398.000 158.800 399.000 L 158.800 400.000 200.000 400.000 L 241.200 400.000 241.200 399.009 L 241.200 398.017 248.895 397.909 C 256.141 397.806,256.598 397.755,256.738 397.026 C 257.179 394.731,258.832 394.000,263.575 394.000 C 266.147 394.000,268.387 393.806,268.905 393.538 C 269.397 393.284,270.070 392.955,270.400 392.808 C 270.730 392.660,271.257 391.968,271.572 391.270 L 272.144 390.000 276.029 390.000 C 280.256 390.000,280.400 389.920,280.400 387.567 L 280.400 386.400 283.300 386.395 C 287.690 386.386,288.000 386.238,288.000 384.153 L 288.000 382.400 291.367 382.400 C 295.805 382.400,296.000 382.306,296.000 380.157 L 296.000 378.400 299.610 378.400 C 303.544 378.400,304.000 378.086,304.000 375.374 C 304.000 374.429,304.088 374.400,307.000 374.400 C 310.438 374.400,311.600 373.692,311.600 371.600 C 311.600 370.427,311.644 370.400,313.600 370.400 L 315.600 370.400 315.600 368.600 C 315.600 366.854,315.637 366.800,316.838 366.800 C 319.662 366.800,322.321 365.651,322.791 364.228 C 323.189 363.020,323.410 362.875,325.215 362.636 L 327.200 362.372 327.200 360.608 L 327.200 358.844 329.100 358.722 L 331.000 358.600 331.122 356.700 L 331.244 354.800 333.222 354.800 L 335.200 354.800 335.200 352.800 L 335.200 350.800 337.200 350.800 C 338.918 350.800,339.200 350.690,339.200 350.018 C 339.200 349.150,340.955 347.200,341.737 347.200 C 343.020 347.200,347.200 343.020,347.200 341.737 C 347.200 340.955,349.150 339.200,350.018 339.200 C 350.690 339.200,350.800 338.918,350.800 337.200 L 350.800 335.200 352.800 335.200 L 354.800 335.200 354.800 333.222 L 354.800 331.244 356.700 331.122 L 358.600 331.000 358.722 329.100 L 358.844 327.200 360.575 327.200 C 362.439 327.200,362.782 326.751,362.795 324.300 C 362.799 323.352,362.961 323.200,363.971 323.200 C 365.787 323.200,366.284 322.371,366.599 318.814 L 366.883 315.600 368.642 315.600 L 370.400 315.600 370.400 313.600 C 370.400 311.675,370.442 311.600,371.524 311.600 C 373.665 311.600,374.176 310.808,374.338 307.236 C 374.478 304.156,374.530 304.000,375.416 304.000 C 378.082 304.000,378.400 303.532,378.400 299.610 L 378.400 296.000 380.157 296.000 C 382.306 296.000,382.400 295.805,382.400 291.367 L 382.400 288.000 384.153 288.000 C 386.238 288.000,386.386 287.690,386.395 283.300 L 386.400 280.400 387.567 280.400 C 389.920 280.400,390.000 280.256,390.000 276.029 L 390.000 272.144 391.270 271.572 C 391.968 271.257,392.660 270.730,392.808 270.400 C 392.955 270.070,393.284 269.397,393.538 268.905 C 393.823 268.354,394.000 265.862,394.000 262.405 L 394.000 256.800 395.520 256.800 C 397.951 256.800,398.000 256.635,398.000 248.520 L 398.000 241.200 399.000 241.200 L 400.000 241.200 400.000 200.000 L 400.000 158.800 399.000 158.800 L 398.000 158.800 398.000 151.480 C 398.000 143.365,397.951 143.200,395.520 143.200 L 394.000 143.200 394.000 137.400 C 394.000 134.210,393.865 131.599,393.700 131.597 C 393.535 131.596,393.093 131.056,392.719 130.397 C 392.344 129.739,391.579 128.991,391.019 128.736 C 390.024 128.282,390.000 128.176,390.000 124.179 C 390.000 119.724,389.934 119.600,387.567 119.600 L 386.400 119.600 386.395 116.700 C 386.386 112.310,386.238 112.000,384.153 112.000 L 382.400 112.000 382.400 108.633 C 382.400 104.195,382.306 104.000,380.157 104.000 L 378.400 104.000 378.400 100.390 C 378.400 96.468,378.082 96.000,375.416 96.000 C 374.530 96.000,374.478 95.844,374.338 92.764 C 374.176 89.192,373.665 88.400,371.524 88.400 C 370.442 88.400,370.400 88.325,370.400 86.400 L 370.400 84.400 368.642 84.400 L 366.883 84.400 366.599 81.186 C 366.284 77.629,365.787 76.800,363.971 76.800 C 362.961 76.800,362.799 76.648,362.795 75.700 C 362.782 73.249,362.439 72.800,360.575 72.800 L 358.844 72.800 358.722 70.900 L 358.600 69.000 356.700 68.878 L 354.800 68.756 354.800 66.778 L 354.800 64.800 352.800 64.800 L 350.800 64.800 350.800 62.800 C 350.800 61.082,350.690 60.800,350.018 60.800 C 349.150 60.800,347.200 59.045,347.200 58.263 C 347.200 56.980,343.020 52.800,341.737 52.800 C 340.955 52.800,339.200 50.850,339.200 49.982 C 339.200 49.310,338.918 49.200,337.200 49.200 L 335.200 49.200 335.200 47.200 L 335.200 45.200 333.222 45.200 L 331.244 45.200 331.122 43.300 L 331.000 41.400 329.100 41.278 L 327.200 41.156 327.200 39.568 C 327.200 37.873,326.349 37.200,324.205 37.200 C 323.485 37.200,323.155 36.874,322.807 35.821 C 322.320 34.347,319.710 33.200,316.838 33.200 C 315.637 33.200,315.600 33.146,315.600 31.400 L 315.600 29.600 313.600 29.600 C 311.675 29.600,311.600 29.558,311.600 28.476 C 311.600 26.335,310.808 25.824,307.236 25.662 C 304.156 25.522,304.000 25.470,304.000 24.584 C 304.000 21.918,303.532 21.600,299.610 21.600 L 296.000 21.600 296.000 19.843 C 296.000 17.694,295.805 17.600,291.367 17.600 L 288.000 17.600 288.000 15.850 C 288.000 13.818,287.511 13.600,282.950 13.600 L 280.400 13.600 280.400 12.433 C 280.400 10.080,280.256 10.000,276.029 10.000 L 272.144 10.000 271.572 8.730 C 271.257 8.032,270.730 7.340,270.400 7.192 C 270.070 7.045,269.397 6.716,268.905 6.462 C 268.354 6.177,265.862 6.000,262.405 6.000 L 256.800 6.000 256.800 4.480 C 256.800 2.049,256.635 2.000,248.520 2.000 L 241.200 2.000 241.200 1.000 L 241.200 0.000 200.000 0.000 L 158.800 0.000 158.800 1.000 M246.140 68.659 L 249.200 68.917 249.200 200.020 L 249.200 331.123 245.100 331.388 C 242.845 331.533,238.390 331.596,235.200 331.526 L 229.400 331.400 229.200 281.982 C 228.976 226.620,229.230 230.890,226.104 230.022 C 223.917 229.415,207.096 229.464,206.480 230.080 C 206.216 230.344,206.000 231.154,206.000 231.880 C 206.000 233.116,205.913 233.200,204.633 233.200 C 202.367 233.200,202.000 233.505,202.000 235.390 C 202.000 237.086,201.992 237.096,200.342 237.317 C 198.194 237.605,198.013 237.960,198.006 241.900 L 198.000 245.200 196.424 245.200 C 194.448 245.200,194.368 245.341,194.102 249.326 C 193.865 252.867,193.668 253.185,191.700 253.194 L 190.400 253.200 190.400 257.000 L 190.400 260.800 189.033 260.800 C 186.467 260.800,186.400 260.908,186.400 265.021 L 186.400 268.756 184.500 268.878 L 182.600 269.000 182.485 272.700 L 182.370 276.400 181.014 276.400 C 178.834 276.400,178.400 277.169,178.400 281.029 L 178.400 284.400 176.790 284.400 C 174.801 284.400,174.400 285.203,174.400 289.183 C 174.400 292.147,174.209 292.400,171.967 292.400 L 170.800 292.400 170.800 294.950 C 170.800 299.392,170.571 299.939,168.654 300.079 L 167.000 300.200 166.886 304.079 L 166.772 307.957 164.886 308.079 L 163.000 308.200 162.885 311.900 L 162.770 315.600 161.559 315.600 C 159.080 315.600,158.800 316.048,158.800 320.014 L 158.800 323.600 157.047 323.600 C 154.966 323.600,154.814 323.915,154.805 328.241 L 154.800 331.083 151.740 331.341 C 147.522 331.698,127.028 331.580,128.942 331.210 C 130.960 330.820,131.187 330.374,131.194 326.767 L 131.200 323.734 133.100 323.367 L 135.000 323.000 135.115 319.300 L 135.230 315.600 136.972 315.600 C 139.088 315.600,139.200 315.380,139.200 311.211 L 139.200 308.087 141.100 307.740 L 143.000 307.394 143.115 303.697 L 143.230 300.000 144.968 300.000 C 146.925 300.000,147.185 299.593,147.195 296.500 C 147.198 295.297,147.367 294.800,147.771 294.800 C 148.085 294.800,148.713 294.305,149.167 293.700 C 149.620 293.095,150.173 292.383,150.396 292.117 C 150.618 291.851,150.800 290.816,150.800 289.817 C 150.800 288.014,150.811 288.000,152.171 288.000 C 154.338 288.000,154.800 287.221,154.800 283.571 L 154.800 280.400 156.171 280.400 C 158.366 280.400,158.800 279.637,158.800 275.771 L 158.800 272.400 160.557 272.400 C 162.693 272.400,162.800 272.189,162.800 267.967 L 162.800 264.800 164.100 264.794 C 166.309 264.783,166.534 264.408,166.724 260.430 L 166.898 256.800 168.649 256.800 L 170.400 256.800 170.400 254.600 C 170.400 252.569,170.471 252.400,171.324 252.400 C 173.331 252.400,174.369 250.403,174.390 246.500 L 174.400 244.800 176.010 244.800 C 178.003 244.800,178.400 243.999,178.400 239.974 L 178.400 237.200 180.157 237.200 C 182.364 237.200,182.400 237.106,182.400 231.400 C 182.400 225.261,182.647 225.600,178.179 225.600 L 174.444 225.600 174.322 223.700 L 174.200 221.800 172.322 221.679 L 170.444 221.558 170.322 219.895 C 170.178 217.931,169.688 217.702,165.500 217.640 L 162.800 217.600 162.800 215.843 C 162.800 213.901,162.447 213.600,160.167 213.600 C 158.813 213.600,158.800 213.582,158.800 211.800 L 158.800 210.000 156.800 210.000 L 154.800 210.000 154.800 208.000 L 154.800 206.000 152.815 206.000 L 150.830 206.000 150.715 202.301 L 150.600 198.602 148.952 198.255 L 147.304 197.908 147.054 195.512 C 146.719 192.309,146.089 191.111,144.500 190.656 L 143.200 190.284 143.200 187.116 C 143.200 183.080,142.852 182.400,140.786 182.400 L 139.200 182.400 139.176 172.900 C 139.146 160.881,139.035 160.171,136.873 158.219 L 135.200 156.707 135.200 153.553 C 135.200 150.526,135.237 150.400,136.124 150.400 C 138.789 150.400,139.195 148.251,139.198 134.108 L 139.200 123.615 140.100 123.423 C 140.595 123.318,141.359 123.177,141.797 123.111 C 142.846 122.952,143.094 121.671,143.153 116.123 L 143.200 111.646 144.900 111.523 L 146.600 111.400 146.954 107.713 L 147.307 104.026 148.954 103.701 L 150.600 103.377 150.715 99.688 L 150.830 96.000 152.815 96.000 L 154.800 96.000 154.800 94.022 L 154.800 92.044 156.700 91.922 L 158.600 91.800 158.722 89.900 L 158.844 88.000 160.575 88.000 C 162.402 88.000,162.781 87.539,162.795 85.300 C 162.799 84.554,163.022 84.399,164.100 84.394 C 165.900 84.385,166.260 84.054,166.586 82.100 L 166.870 80.400 168.635 80.400 L 170.400 80.400 170.400 78.414 L 170.400 76.429 174.300 76.314 L 178.200 76.200 178.322 74.300 L 178.444 72.400 183.742 72.400 C 189.576 72.400,190.000 72.246,190.000 70.127 L 190.000 68.814 199.900 68.700 C 222.794 68.435,243.283 68.417,246.140 68.659 M188.800 84.691 C 187.373 84.956,186.919 85.440,186.624 87.014 C 186.369 88.374,186.326 88.400,184.382 88.400 L 182.400 88.400 182.400 90.200 C 182.400 91.896,182.336 92.000,181.300 92.005 C 178.849 92.018,178.400 92.361,178.400 94.225 L 178.400 95.956 176.500 96.078 L 174.600 96.200 174.478 98.100 L 174.356 100.000 172.578 100.000 L 170.800 100.000 170.800 102.000 L 170.800 104.000 169.280 104.000 C 167.063 104.000,166.800 104.475,166.800 108.480 L 166.800 112.000 165.224 112.000 C 163.104 112.000,163.030 112.196,162.800 118.385 L 162.600 123.769 161.280 124.038 C 158.833 124.537,158.838 124.490,158.817 150.274 C 158.798 174.766,158.762 174.400,161.179 174.400 L 162.778 174.400 162.889 180.100 L 163.000 185.800 164.886 186.164 L 166.772 186.529 166.886 190.164 L 167.000 193.800 168.595 193.930 C 170.457 194.081,170.786 194.466,170.794 196.500 L 170.800 198.000 172.600 198.000 L 174.400 198.000 174.400 199.605 C 174.400 200.488,174.561 201.523,174.757 201.905 C 174.953 202.287,175.311 203.099,175.553 203.709 C 175.854 204.471,176.371 204.894,177.204 205.061 C 177.871 205.194,178.514 205.460,178.632 205.652 C 178.750 205.843,179.647 206.000,180.624 206.000 L 182.400 206.000 182.400 207.800 L 182.400 209.600 184.400 209.600 L 186.400 209.600 186.400 210.971 C 186.400 213.364,186.991 213.600,192.997 213.600 L 198.336 213.600 198.603 214.814 C 199.144 217.277,199.717 217.388,212.582 217.513 C 226.547 217.648,227.923 217.439,228.700 215.065 C 229.096 213.853,229.181 199.934,229.101 149.065 L 229.000 84.600 209.400 84.553 C 198.620 84.527,189.350 84.589,188.800 84.691 " stroke="none" fill="#ffffff" fill-rule="evenodd"></path><path id="path3" d="M158.800 1.000 L 158.800 2.000 151.480 2.000 C 143.365 2.000,143.200 2.049,143.200 4.480 L 143.200 6.000 137.595 6.000 C 134.138 6.000,131.646 6.177,131.095 6.462 C 130.603 6.716,129.930 7.045,129.600 7.192 C 129.270 7.340,128.743 8.032,128.428 8.730 L 127.856 10.000 123.971 10.000 C 119.744 10.000,119.600 10.080,119.600 12.433 L 119.600 13.600 117.050 13.600 C 112.489 13.600,112.000 13.818,112.000 15.850 L 112.000 17.600 108.633 17.600 C 104.195 17.600,104.000 17.694,104.000 19.843 L 104.000 21.600 100.390 21.600 C 96.468 21.600,96.000 21.918,96.000 24.584 C 96.000 25.470,95.844 25.522,92.764 25.662 C 89.192 25.824,88.400 26.335,88.400 28.476 C 88.400 29.558,88.325 29.600,86.400 29.600 L 84.400 29.600 84.400 31.400 C 84.400 33.146,84.363 33.200,83.162 33.200 C 80.290 33.200,77.680 34.347,77.193 35.821 C 76.845 36.874,76.515 37.200,75.795 37.200 C 73.651 37.200,72.800 37.873,72.800 39.568 L 72.800 41.156 70.900 41.278 L 69.000 41.400 68.878 43.300 L 68.756 45.200 66.778 45.200 L 64.800 45.200 64.800 47.200 L 64.800 49.200 62.800 49.200 C 61.082 49.200,60.800 49.310,60.800 49.982 C 60.800 50.984,59.168 52.621,57.834 52.956 C 57.168 53.123,56.800 53.491,56.800 53.989 C 56.800 54.990,54.990 56.800,53.989 56.800 C 53.491 56.800,53.123 57.168,52.956 57.834 C 52.621 59.168,50.984 60.800,49.982 60.800 C 49.310 60.800,49.200 61.082,49.200 62.800 L 49.200 64.800 47.200 64.800 L 45.200 64.800 45.200 66.778 L 45.200 68.756 43.300 68.878 L 41.400 69.000 41.278 70.900 L 41.156 72.800 39.425 72.800 C 37.561 72.800,37.218 73.249,37.205 75.700 C 37.201 76.648,37.039 76.800,36.029 76.800 C 34.213 76.800,33.716 77.629,33.401 81.186 L 33.117 84.400 31.358 84.400 L 29.600 84.400 29.600 86.400 C 29.600 88.325,29.558 88.400,28.476 88.400 C 26.335 88.400,25.824 89.192,25.662 92.764 C 25.522 95.844,25.470 96.000,24.584 96.000 C 21.918 96.000,21.600 96.468,21.600 100.390 L 21.600 104.000 19.843 104.000 C 17.694 104.000,17.600 104.195,17.600 108.633 L 17.600 112.000 15.847 112.000 C 13.762 112.000,13.614 112.310,13.605 116.700 L 13.600 119.600 12.433 119.600 C 10.080 119.600,10.000 119.744,10.000 123.971 L 10.000 127.856 8.730 128.428 C 8.032 128.743,7.340 129.270,7.192 129.600 C 7.045 129.930,6.716 130.603,6.462 131.095 C 6.177 131.646,6.000 134.138,6.000 137.595 L 6.000 143.200 4.480 143.200 C 2.049 143.200,2.000 143.365,2.000 151.480 L 2.000 158.800 1.000 158.800 L 0.000 158.800 0.000 200.000 L 0.000 241.200 1.000 241.200 L 2.000 241.200 2.000 248.520 C 2.000 256.635,2.049 256.800,4.480 256.800 L 6.000 256.800 6.000 262.405 C 6.000 265.862,6.177 268.354,6.462 268.905 C 6.716 269.397,7.045 270.070,7.192 270.400 C 7.340 270.730,8.032 271.257,8.730 271.572 L 10.000 272.144 10.000 276.029 C 10.000 280.256,10.080 280.400,12.433 280.400 L 13.600 280.400 13.605 283.300 C 13.614 287.690,13.762 288.000,15.847 288.000 L 17.600 288.000 17.600 291.367 C 17.600 295.805,17.694 296.000,19.843 296.000 L 21.600 296.000 21.600 299.610 C 21.600 303.532,21.918 304.000,24.584 304.000 C 25.470 304.000,25.522 304.156,25.662 307.236 C 25.824 310.808,26.335 311.600,28.476 311.600 C 29.558 311.600,29.600 311.675,29.600 313.600 L 29.600 315.600 31.358 315.600 L 33.117 315.600 33.401 318.814 C 33.716 322.371,34.213 323.200,36.029 323.200 C 37.039 323.200,37.201 323.352,37.205 324.300 C 37.218 326.751,37.561 327.200,39.425 327.200 L 41.156 327.200 41.278 329.100 L 41.400 331.000 43.300 331.122 L 45.200 331.244 45.200 333.222 L 45.200 335.200 47.200 335.200 L 49.200 335.200 49.200 337.200 C 49.200 338.918,49.310 339.200,49.982 339.200 C 50.850 339.200,52.800 340.955,52.800 341.737 C 52.800 343.020,56.980 347.200,58.263 347.200 C 59.045 347.200,60.800 349.150,60.800 350.018 C 60.800 350.690,61.082 350.800,62.800 350.800 L 64.800 350.800 64.800 352.800 L 64.800 354.800 66.778 354.800 L 68.756 354.800 68.878 356.700 L 69.000 358.600 70.900 358.722 L 72.800 358.844 72.800 360.608 L 72.800 362.372 74.785 362.636 C 76.590 362.875,76.811 363.020,77.209 364.228 C 77.679 365.651,80.338 366.800,83.162 366.800 C 84.363 366.800,84.400 366.854,84.400 368.600 L 84.400 370.400 86.400 370.400 C 88.356 370.400,88.400 370.427,88.400 371.600 C 88.400 373.692,89.562 374.400,93.000 374.400 C 95.912 374.400,96.000 374.429,96.000 375.374 C 96.000 378.086,96.456 378.400,100.390 378.400 L 104.000 378.400 104.000 380.157 C 104.000 382.306,104.195 382.400,108.633 382.400 L 112.000 382.400 112.000 384.153 C 112.000 386.238,112.310 386.386,116.700 386.395 L 119.600 386.400 119.600 387.567 C 119.600 389.920,119.744 390.000,123.971 390.000 L 127.856 390.000 128.428 391.270 C 128.743 391.968,129.270 392.660,129.600 392.808 C 129.930 392.955,130.603 393.284,131.095 393.538 C 131.646 393.823,134.138 394.000,137.595 394.000 L 143.200 394.000 143.200 395.757 C 143.200 398.037,143.059 398.000,151.633 398.000 L 158.800 398.000 158.800 399.000 L 158.800 400.000 200.000 400.000 L 241.200 400.000 241.200 399.009 L 241.200 398.017 248.895 397.909 C 256.141 397.806,256.598 397.755,256.738 397.026 C 257.179 394.731,258.832 394.000,263.575 394.000 C 266.147 394.000,268.387 393.806,268.905 393.538 C 269.397 393.284,270.070 392.955,270.400 392.808 C 270.730 392.660,271.257 391.968,271.572 391.270 L 272.144 390.000 276.029 390.000 C 280.256 390.000,280.400 389.920,280.400 387.567 L 280.400 386.400 283.300 386.395 C 287.690 386.386,288.000 386.238,288.000 384.153 L 288.000 382.400 291.367 382.400 C 295.805 382.400,296.000 382.306,296.000 380.157 L 296.000 378.400 299.610 378.400 C 303.544 378.400,304.000 378.086,304.000 375.374 C 304.000 374.429,304.088 374.400,307.000 374.400 C 310.438 374.400,311.600 373.692,311.600 371.600 C 311.600 370.427,311.644 370.400,313.600 370.400 L 315.600 370.400 315.600 368.600 C 315.600 366.854,315.637 366.800,316.838 366.800 C 319.662 366.800,322.321 365.651,322.791 364.228 C 323.189 363.020,323.410 362.875,325.215 362.636 L 327.200 362.372 327.200 360.608 L 327.200 358.844 329.100 358.722 L 331.000 358.600 331.122 356.700 L 331.244 354.800 333.222 354.800 L 335.200 354.800 335.200 352.800 L 335.200 350.800 337.200 350.800 C 338.918 350.800,339.200 350.690,339.200 350.018 C 339.200 349.150,340.955 347.200,341.737 347.200 C 343.020 347.200,347.200 343.020,347.200 341.737 C 347.200 340.955,349.150 339.200,350.018 339.200 C 350.690 339.200,350.800 338.918,350.800 337.200 L 350.800 335.200 352.800 335.200 L 354.800 335.200 354.800 333.222 L 354.800 331.244 356.700 331.122 L 358.600 331.000 358.722 329.100 L 358.844 327.200 360.575 327.200 C 362.439 327.200,362.782 326.751,362.795 324.300 C 362.799 323.352,362.961 323.200,363.971 323.200 C 365.787 323.200,366.284 322.371,366.599 318.814 L 366.883 315.600 368.642 315.600 L 370.400 315.600 370.400 313.600 C 370.400 311.675,370.442 311.600,371.524 311.600 C 373.665 311.600,374.176 310.808,374.338 307.236 C 374.478 304.156,374.530 304.000,375.416 304.000 C 378.082 304.000,378.400 303.532,378.400 299.610 L 378.400 296.000 380.157 296.000 C 382.306 296.000,382.400 295.805,382.400 291.367 L 382.400 288.000 384.153 288.000 C 386.238 288.000,386.386 287.690,386.395 283.300 L 386.400 280.400 387.567 280.400 C 389.920 280.400,390.000 280.256,390.000 276.029 L 390.000 272.144 391.270 271.572 C 391.968 271.257,392.660 270.730,392.808 270.400 C 392.955 270.070,393.284 269.397,393.538 268.905 C 393.823 268.354,394.000 265.862,394.000 262.405 L 394.000 256.800 395.520 256.800 C 397.951 256.800,398.000 256.635,398.000 248.520 L 398.000 241.200 399.000 241.200 L 400.000 241.200 400.000 200.000 L 400.000 158.800 399.000 158.800 L 398.000 158.800 398.000 151.480 C 398.000 143.365,397.951 143.200,395.520 143.200 L 394.000 143.200 394.000 137.400 C 394.000 134.210,393.865 131.599,393.700 131.597 C 393.535 131.596,393.093 131.056,392.719 130.397 C 392.344 129.739,391.579 128.991,391.019 128.736 C 390.024 128.282,390.000 128.176,390.000 124.179 C 390.000 119.724,389.934 119.600,387.567 119.600 L 386.400 119.600 386.395 116.700 C 386.386 112.310,386.238 112.000,384.153 112.000 L 382.400 112.000 382.400 108.633 C 382.400 104.195,382.306 104.000,380.157 104.000 L 378.400 104.000 378.400 100.390 C 378.400 96.468,378.082 96.000,375.416 96.000 C 374.530 96.000,374.478 95.844,374.338 92.764 C 374.176 89.192,373.665 88.400,371.524 88.400 C 370.442 88.400,370.400 88.325,370.400 86.400 L 370.400 84.400 368.642 84.400 L 366.883 84.400 366.599 81.186 C 366.284 77.629,365.787 76.800,363.971 76.800 C 362.961 76.800,362.799 76.648,362.795 75.700 C 362.782 73.249,362.439 72.800,360.575 72.800 L 358.844 72.800 358.722 70.900 L 358.600 69.000 356.700 68.878 L 354.800 68.756 354.800 66.778 L 354.800 64.800 352.800 64.800 L 350.800 64.800 350.800 62.800 C 350.800 61.082,350.690 60.800,350.018 60.800 C 349.150 60.800,347.200 59.045,347.200 58.263 C 347.200 56.980,343.020 52.800,341.737 52.800 C 340.955 52.800,339.200 50.850,339.200 49.982 C 339.200 49.310,338.918 49.200,337.200 49.200 L 335.200 49.200 335.200 47.200 L 335.200 45.200 333.222 45.200 L 331.244 45.200 331.122 43.300 L 331.000 41.400 329.100 41.278 L 327.200 41.156 327.200 39.568 C 327.200 37.873,326.349 37.200,324.205 37.200 C 323.485 37.200,323.155 36.874,322.807 35.821 C 322.320 34.347,319.710 33.200,316.838 33.200 C 315.637 33.200,315.600 33.146,315.600 31.400 L 315.600 29.600 313.600 29.600 C 311.675 29.600,311.600 29.558,311.600 28.476 C 311.600 26.335,310.808 25.824,307.236 25.662 C 304.156 25.522,304.000 25.470,304.000 24.584 C 304.000 21.918,303.532 21.600,299.610 21.600 L 296.000 21.600 296.000 19.843 C 296.000 17.694,295.805 17.600,291.367 17.600 L 288.000 17.600 288.000 15.850 C 288.000 13.818,287.511 13.600,282.950 13.600 L 280.400 13.600 280.400 12.433 C 280.400 10.080,280.256 10.000,276.029 10.000 L 272.144 10.000 271.572 8.730 C 271.257 8.032,270.730 7.340,270.400 7.192 C 270.070 7.045,269.397 6.716,268.905 6.462 C 268.354 6.177,265.862 6.000,262.405 6.000 L 256.800 6.000 256.800 4.480 C 256.800 2.049,256.635 2.000,248.520 2.000 L 241.200 2.000 241.200 1.000 L 241.200 0.000 200.000 0.000 L 158.800 0.000 158.800 1.000 M246.140 68.659 L 249.200 68.917 249.200 200.020 L 249.200 331.123 245.100 331.388 C 242.845 331.533,238.390 331.596,235.200 331.526 L 229.400 331.400 229.200 281.982 C 228.976 226.620,229.230 230.890,226.104 230.022 C 223.917 229.415,207.096 229.464,206.480 230.080 C 206.216 230.344,206.000 231.154,206.000 231.880 C 206.000 233.116,205.913 233.200,204.633 233.200 C 202.367 233.200,202.000 233.505,202.000 235.390 C 202.000 237.086,201.992 237.096,200.342 237.317 C 198.194 237.605,198.013 237.960,198.006 241.900 L 198.000 245.200 196.424 245.200 C 194.448 245.200,194.368 245.341,194.102 249.326 C 193.865 252.867,193.668 253.185,191.700 253.194 L 190.400 253.200 190.400 257.000 L 190.400 260.800 189.033 260.800 C 186.467 260.800,186.400 260.908,186.400 265.021 L 186.400 268.756 184.500 268.878 L 182.600 269.000 182.485 272.700 L 182.370 276.400 181.014 276.400 C 178.834 276.400,178.400 277.169,178.400 281.029 L 178.400 284.400 176.790 284.400 C 174.801 284.400,174.400 285.203,174.400 289.183 C 174.400 292.147,174.209 292.400,171.967 292.400 L 170.800 292.400 170.800 294.950 C 170.800 299.392,170.571 299.939,168.654 300.079 L 167.000 300.200 166.886 304.079 L 166.772 307.957 164.886 308.079 L 163.000 308.200 162.885 311.900 L 162.770 315.600 161.559 315.600 C 159.080 315.600,158.800 316.048,158.800 320.014 L 158.800 323.600 157.047 323.600 C 154.966 323.600,154.814 323.915,154.805 328.241 L 154.800 331.083 151.740 331.341 C 147.522 331.698,127.028 331.580,128.942 331.210 C 130.960 330.820,131.187 330.374,131.194 326.767 L 131.200 323.734 133.100 323.367 L 135.000 323.000 135.115 319.300 L 135.230 315.600 136.972 315.600 C 139.088 315.600,139.200 315.380,139.200 311.211 L 139.200 308.087 141.100 307.740 L 143.000 307.394 143.115 303.697 L 143.230 300.000 144.968 300.000 C 146.925 300.000,147.185 299.593,147.195 296.500 C 147.198 295.297,147.367 294.800,147.771 294.800 C 148.085 294.800,148.713 294.305,149.167 293.700 C 149.620 293.095,150.173 292.383,150.396 292.117 C 150.618 291.851,150.800 290.816,150.800 289.817 C 150.800 288.014,150.811 288.000,152.171 288.000 C 154.338 288.000,154.800 287.221,154.800 283.571 L 154.800 280.400 156.171 280.400 C 158.366 280.400,158.800 279.637,158.800 275.771 L 158.800 272.400 160.557 272.400 C 162.693 272.400,162.800 272.189,162.800 267.967 L 162.800 264.800 164.100 264.794 C 166.309 264.783,166.534 264.408,166.724 260.430 L 166.898 256.800 168.649 256.800 L 170.400 256.800 170.400 254.600 C 170.400 252.569,170.471 252.400,171.324 252.400 C 173.331 252.400,174.369 250.403,174.390 246.500 L 174.400 244.800 176.010 244.800 C 178.003 244.800,178.400 243.999,178.400 239.974 L 178.400 237.200 180.157 237.200 C 182.364 237.200,182.400 237.106,182.400 231.400 C 182.400 225.261,182.647 225.600,178.179 225.600 L 174.444 225.600 174.322 223.700 L 174.200 221.800 172.322 221.679 L 170.444 221.558 170.322 219.895 C 170.178 217.931,169.688 217.702,165.500 217.640 L 162.800 217.600 162.800 215.843 C 162.800 213.901,162.447 213.600,160.167 213.600 C 158.813 213.600,158.800 213.582,158.800 211.800 L 158.800 210.000 156.800 210.000 L 154.800 210.000 154.800 208.000 L 154.800 206.000 152.815 206.000 L 150.830 206.000 150.715 202.301 L 150.600 198.602 148.952 198.255 L 147.304 197.908 147.054 195.512 C 146.719 192.309,146.089 191.111,144.500 190.656 L 143.200 190.284 143.200 187.116 C 143.200 183.080,142.852 182.400,140.786 182.400 L 139.200 182.400 139.176 172.900 C 139.146 160.881,139.035 160.171,136.873 158.219 L 135.200 156.707 135.200 153.553 C 135.200 150.526,135.237 150.400,136.124 150.400 C 138.789 150.400,139.195 148.251,139.198 134.108 L 139.200 123.615 140.100 123.423 C 140.595 123.318,141.359 123.177,141.797 123.111 C 142.846 122.952,143.094 121.671,143.153 116.123 L 143.200 111.646 144.900 111.523 L 146.600 111.400 146.954 107.713 L 147.307 104.026 148.954 103.701 L 150.600 103.377 150.715 99.688 L 150.830 96.000 152.815 96.000 L 154.800 96.000 154.800 94.022 L 154.800 92.044 156.700 91.922 L 158.600 91.800 158.722 89.900 L 158.844 88.000 160.575 88.000 C 162.402 88.000,162.781 87.539,162.795 85.300 C 162.799 84.554,163.022 84.399,164.100 84.394 C 165.900 84.385,166.260 84.054,166.586 82.100 L 166.870 80.400 168.635 80.400 L 170.400 80.400 170.400 78.414 L 170.400 76.429 174.300 76.314 L 178.200 76.200 178.322 74.300 L 178.444 72.400 183.742 72.400 C 189.576 72.400,190.000 72.246,190.000 70.127 L 190.000 68.814 199.900 68.700 C 222.794 68.435,243.283 68.417,246.140 68.659 M188.800 84.691 C 187.373 84.956,186.919 85.440,186.624 87.014 C 186.369 88.374,186.326 88.400,184.382 88.400 L 182.400 88.400 182.400 90.200 C 182.400 91.896,182.336 92.000,181.300 92.005 C 178.849 92.018,178.400 92.361,178.400 94.225 L 178.400 95.956 176.500 96.078 L 174.600 96.200 174.478 98.100 L 174.356 100.000 172.578 100.000 L 170.800 100.000 170.800 102.000 L 170.800 104.000 169.280 104.000 C 167.063 104.000,166.800 104.475,166.800 108.480 L 166.800 112.000 165.224 112.000 C 163.104 112.000,163.030 112.196,162.800 118.385 L 162.600 123.769 161.280 124.038 C 158.833 124.537,158.838 124.490,158.817 150.274 C 158.798 174.766,158.762 174.400,161.179 174.400 L 162.778 174.400 162.889 180.100 L 163.000 185.800 164.886 186.164 L 166.772 186.529 166.886 190.164 L 167.000 193.800 168.595 193.930 C 170.457 194.081,170.786 194.466,170.794 196.500 L 170.800 198.000 172.600 198.000 L 174.400 198.000 174.400 199.605 C 174.400 200.488,174.561 201.523,174.757 201.905 C 174.953 202.287,175.311 203.099,175.553 203.709 C 175.854 204.471,176.371 204.894,177.204 205.061 C 177.871 205.194,178.514 205.460,178.632 205.652 C 178.750 205.843,179.647 206.000,180.624 206.000 L 182.400 206.000 182.400 207.800 L 182.400 209.600 184.400 209.600 L 186.400 209.600 186.400 210.971 C 186.400 213.364,186.991 213.600,192.997 213.600 L 198.336 213.600 198.603 214.814 C 199.144 217.277,199.717 217.388,212.582 217.513 C 226.547 217.648,227.923 217.439,228.700 215.065 C 229.096 213.853,229.181 199.934,229.101 149.065 L 229.000 84.600 209.400 84.553 C 198.620 84.527,189.350 84.589,188.800 84.691 " stroke="none" fill="#ffffff" fill-rule="evenodd"></path><path id="path4" d="M158.800 1.000 L 158.800 2.000 151.480 2.000 C 143.365 2.000,143.200 2.049,143.200 4.480 L 143.200 6.000 137.595 6.000 C 134.138 6.000,131.646 6.177,131.095 6.462 C 130.603 6.716,129.930 7.045,129.600 7.192 C 129.270 7.340,128.743 8.032,128.428 8.730 L 127.856 10.000 123.971 10.000 C 119.744 10.000,119.600 10.080,119.600 12.433 L 119.600 13.600 117.050 13.600 C 112.489 13.600,112.000 13.818,112.000 15.850 L 112.000 17.600 108.633 17.600 C 104.195 17.600,104.000 17.694,104.000 19.843 L 104.000 21.600 100.390 21.600 C 96.468 21.600,96.000 21.918,96.000 24.584 C 96.000 25.470,95.844 25.522,92.764 25.662 C 89.192 25.824,88.400 26.335,88.400 28.476 C 88.400 29.558,88.325 29.600,86.400 29.600 L 84.400 29.600 84.400 31.400 C 84.400 33.146,84.363 33.200,83.162 33.200 C 80.290 33.200,77.680 34.347,77.193 35.821 C 76.845 36.874,76.515 37.200,75.795 37.200 C 73.651 37.200,72.800 37.873,72.800 39.568 L 72.800 41.156 70.900 41.278 L 69.000 41.400 68.878 43.300 L 68.756 45.200 66.778 45.200 L 64.800 45.200 64.800 47.200 L 64.800 49.200 62.800 49.200 C 61.082 49.200,60.800 49.310,60.800 49.982 C 60.800 50.984,59.168 52.621,57.834 52.956 C 57.168 53.123,56.800 53.491,56.800 53.989 C 56.800 54.990,54.990 56.800,53.989 56.800 C 53.491 56.800,53.123 57.168,52.956 57.834 C 52.621 59.168,50.984 60.800,49.982 60.800 C 49.310 60.800,49.200 61.082,49.200 62.800 L 49.200 64.800 47.200 64.800 L 45.200 64.800 45.200 66.778 L 45.200 68.756 43.300 68.878 L 41.400 69.000 41.278 70.900 L 41.156 72.800 39.425 72.800 C 37.561 72.800,37.218 73.249,37.205 75.700 C 37.201 76.648,37.039 76.800,36.029 76.800 C 34.213 76.800,33.716 77.629,33.401 81.186 L 33.117 84.400 31.358 84.400 L 29.600 84.400 29.600 86.400 C 29.600 88.325,29.558 88.400,28.476 88.400 C 26.335 88.400,25.824 89.192,25.662 92.764 C 25.522 95.844,25.470 96.000,24.584 96.000 C 21.918 96.000,21.600 96.468,21.600 100.390 L 21.600 104.000 19.843 104.000 C 17.694 104.000,17.600 104.195,17.600 108.633 L 17.600 112.000 15.847 112.000 C 13.762 112.000,13.614 112.310,13.605 116.700 L 13.600 119.600 12.433 119.600 C 10.080 119.600,10.000 119.744,10.000 123.971 L 10.000 127.856 8.730 128.428 C 8.032 128.743,7.340 129.270,7.192 129.600 C 7.045 129.930,6.716 130.603,6.462 131.095 C 6.177 131.646,6.000 134.138,6.000 137.595 L 6.000 143.200 4.480 143.200 C 2.049 143.200,2.000 143.365,2.000 151.480 L 2.000 158.800 1.000 158.800 L 0.000 158.800 0.000 200.000 L 0.000 241.200 1.000 241.200 L 2.000 241.200 2.000 248.520 C 2.000 256.635,2.049 256.800,4.480 256.800 L 6.000 256.800 6.000 262.405 C 6.000 265.862,6.177 268.354,6.462 268.905 C 6.716 269.397,7.045 270.070,7.192 270.400 C 7.340 270.730,8.032 271.257,8.730 271.572 L 10.000 272.144 10.000 276.029 C 10.000 280.256,10.080 280.400,12.433 280.400 L 13.600 280.400 13.605 283.300 C 13.614 287.690,13.762 288.000,15.847 288.000 L 17.600 288.000 17.600 291.367 C 17.600 295.805,17.694 296.000,19.843 296.000 L 21.600 296.000 21.600 299.610 C 21.600 303.532,21.918 304.000,24.584 304.000 C 25.470 304.000,25.522 304.156,25.662 307.236 C 25.824 310.808,26.335 311.600,28.476 311.600 C 29.558 311.600,29.600 311.675,29.600 313.600 L 29.600 315.600 31.358 315.600 L 33.117 315.600 33.401 318.814 C 33.716 322.371,34.213 323.200,36.029 323.200 C 37.039 323.200,37.201 323.352,37.205 324.300 C 37.218 326.751,37.561 327.200,39.425 327.200 L 41.156 327.200 41.278 329.100 L 41.400 331.000 43.300 331.122 L 45.200 331.244 45.200 333.222 L 45.200 335.200 47.200 335.200 L 49.200 335.200 49.200 337.200 C 49.200 338.918,49.310 339.200,49.982 339.200 C 50.850 339.200,52.800 340.955,52.800 341.737 C 52.800 343.020,56.980 347.200,58.263 347.200 C 59.045 347.200,60.800 349.150,60.800 350.018 C 60.800 350.690,61.082 350.800,62.800 350.800 L 64.800 350.800 64.800 352.800 L 64.800 354.800 66.778 354.800 L 68.756 354.800 68.878 356.700 L 69.000 358.600 70.900 358.722 L 72.800 358.844 72.800 360.608 L 72.800 362.372 74.785 362.636 C 76.590 362.875,76.811 363.020,77.209 364.228 C 77.679 365.651,80.338 366.800,83.162 366.800 C 84.363 366.800,84.400 366.854,84.400 368.600 L 84.400 370.400 86.400 370.400 C 88.356 370.400,88.400 370.427,88.400 371.600 C 88.400 373.692,89.562 374.400,93.000 374.400 C 95.912 374.400,96.000 374.429,96.000 375.374 C 96.000 378.086,96.456 378.400,100.390 378.400 L 104.000 378.400 104.000 380.157 C 104.000 382.306,104.195 382.400,108.633 382.400 L 112.000 382.400 112.000 384.153 C 112.000 386.238,112.310 386.386,116.700 386.395 L 119.600 386.400 119.600 387.567 C 119.600 389.920,119.744 390.000,123.971 390.000 L 127.856 390.000 128.428 391.270 C 128.743 391.968,129.270 392.660,129.600 392.808 C 129.930 392.955,130.603 393.284,131.095 393.538 C 131.646 393.823,134.138 394.000,137.595 394.000 L 143.200 394.000 143.200 395.757 C 143.200 398.037,143.059 398.000,151.633 398.000 L 158.800 398.000 158.800 399.000 L 158.800 400.000 200.000 400.000 L 241.200 400.000 241.200 399.009 L 241.200 398.017 248.895 397.909 C 256.141 397.806,256.598 397.755,256.738 397.026 C 257.179 394.731,258.832 394.000,263.575 394.000 C 266.147 394.000,268.387 393.806,268.905 393.538 C 269.397 393.284,270.070 392.955,270.400 392.808 C 270.730 392.660,271.257 391.968,271.572 391.270 L 272.144 390.000 276.029 390.000 C 280.256 390.000,280.400 389.920,280.400 387.567 L 280.400 386.400 283.300 386.395 C 287.690 386.386,288.000 386.238,288.000 384.153 L 288.000 382.400 291.367 382.400 C 295.805 382.400,296.000 382.306,296.000 380.157 L 296.000 378.400 299.610 378.400 C 303.544 378.400,304.000 378.086,304.000 375.374 C 304.000 374.429,304.088 374.400,307.000 374.400 C 310.438 374.400,311.600 373.692,311.600 371.600 C 311.600 370.427,311.644 370.400,313.600 370.400 L 315.600 370.400 315.600 368.600 C 315.600 366.854,315.637 366.800,316.838 366.800 C 319.662 366.800,322.321 365.651,322.791 364.228 C 323.189 363.020,323.410 362.875,325.215 362.636 L 327.200 362.372 327.200 360.608 L 327.200 358.844 329.100 358.722 L 331.000 358.600 331.122 356.700 L 331.244 354.800 333.222 354.800 L 335.200 354.800 335.200 352.800 L 335.200 350.800 337.200 350.800 C 338.918 350.800,339.200 350.690,339.200 350.018 C 339.200 349.150,340.955 347.200,341.737 347.200 C 343.020 347.200,347.200 343.020,347.200 341.737 C 347.200 340.955,349.150 339.200,350.018 339.200 C 350.690 339.200,350.800 338.918,350.800 337.200 L 350.800 335.200 352.800 335.200 L 354.800 335.200 354.800 333.222 L 354.800 331.244 356.700 331.122 L 358.600 331.000 358.722 329.100 L 358.844 327.200 360.575 327.200 C 362.439 327.200,362.782 326.751,362.795 324.300 C 362.799 323.352,362.961 323.200,363.971 323.200 C 365.787 323.200,366.284 322.371,366.599 318.814 L 366.883 315.600 368.642 315.600 L 370.400 315.600 370.400 313.600 C 370.400 311.675,370.442 311.600,371.524 311.600 C 373.665 311.600,374.176 310.808,374.338 307.236 C 374.478 304.156,374.530 304.000,375.416 304.000 C 378.082 304.000,378.400 303.532,378.400 299.610 L 378.400 296.000 380.157 296.000 C 382.306 296.000,382.400 295.805,382.400 291.367 L 382.400 288.000 384.153 288.000 C 386.238 288.000,386.386 287.690,386.395 283.300 L 386.400 280.400 387.567 280.400 C 389.920 280.400,390.000 280.256,390.000 276.029 L 390.000 272.144 391.270 271.572 C 391.968 271.257,392.660 270.730,392.808 270.400 C 392.955 270.070,393.284 269.397,393.538 268.905 C 393.823 268.354,394.000 265.862,394.000 262.405 L 394.000 256.800 395.520 256.800 C 397.951 256.800,398.000 256.635,398.000 248.520 L 398.000 241.200 399.000 241.200 L 400.000 241.200 400.000 200.000 L 400.000 158.800 399.000 158.800 L 398.000 158.800 398.000 151.480 C 398.000 143.365,397.951 143.200,395.520 143.200 L 394.000 143.200 394.000 137.400 C 394.000 134.210,393.865 131.599,393.700 131.597 C 393.535 131.596,393.093 131.056,392.719 130.397 C 392.344 129.739,391.579 128.991,391.019 128.736 C 390.024 128.282,390.000 128.176,390.000 124.179 C 390.000 119.724,389.934 119.600,387.567 119.600 L 386.400 119.600 386.395 116.700 C 386.386 112.310,386.238 112.000,384.153 112.000 L 382.400 112.000 382.400 108.633 C 382.400 104.195,382.306 104.000,380.157 104.000 L 378.400 104.000 378.400 100.390 C 378.400 96.468,378.082 96.000,375.416 96.000 C 374.530 96.000,374.478 95.844,374.338 92.764 C 374.176 89.192,373.665 88.400,371.524 88.400 C 370.442 88.400,370.400 88.325,370.400 86.400 L 370.400 84.400 368.642 84.400 L 366.883 84.400 366.599 81.186 C 366.284 77.629,365.787 76.800,363.971 76.800 C 362.961 76.800,362.799 76.648,362.795 75.700 C 362.782 73.249,362.439 72.800,360.575 72.800 L 358.844 72.800 358.722 70.900 L 358.600 69.000 356.700 68.878 L 354.800 68.756 354.800 66.778 L 354.800 64.800 352.800 64.800 L 350.800 64.800 350.800 62.800 C 350.800 61.082,350.690 60.800,350.018 60.800 C 349.150 60.800,347.200 59.045,347.200 58.263 C 347.200 56.980,343.020 52.800,341.737 52.800 C 340.955 52.800,339.200 50.850,339.200 49.982 C 339.200 49.310,338.918 49.200,337.200 49.200 L 335.200 49.200 335.200 47.200 L 335.200 45.200 333.222 45.200 L 331.244 45.200 331.122 43.300 L 331.000 41.400 329.100 41.278 L 327.200 41.156 327.200 39.568 C 327.200 37.873,326.349 37.200,324.205 37.200 C 323.485 37.200,323.155 36.874,322.807 35.821 C 322.320 34.347,319.710 33.200,316.838 33.200 C 315.637 33.200,315.600 33.146,315.600 31.400 L 315.600 29.600 313.600 29.600 C 311.675 29.600,311.600 29.558,311.600 28.476 C 311.600 26.335,310.808 25.824,307.236 25.662 C 304.156 25.522,304.000 25.470,304.000 24.584 C 304.000 21.918,303.532 21.600,299.610 21.600 L 296.000 21.600 296.000 19.843 C 296.000 17.694,295.805 17.600,291.367 17.600 L 288.000 17.600 288.000 15.850 C 288.000 13.818,287.511 13.600,282.950 13.600 L 280.400 13.600 280.400 12.433 C 280.400 10.080,280.256 10.000,276.029 10.000 L 272.144 10.000 271.572 8.730 C 271.257 8.032,270.730 7.340,270.400 7.192 C 270.070 7.045,269.397 6.716,268.905 6.462 C 268.354 6.177,265.862 6.000,262.405 6.000 L 256.800 6.000 256.800 4.480 C 256.800 2.049,256.635 2.000,248.520 2.000 L 241.200 2.000 241.200 1.000 L 241.200 0.000 200.000 0.000 L 158.800 0.000 158.800 1.000 M246.140 68.659 L 249.200 68.917 249.200 200.020 L 249.200 331.123 245.100 331.388 C 242.845 331.533,238.390 331.596,235.200 331.526 L 229.400 331.400 229.200 281.982 C 228.976 226.620,229.230 230.890,226.104 230.022 C 223.917 229.415,207.096 229.464,206.480 230.080 C 206.216 230.344,206.000 231.154,206.000 231.880 C 206.000 233.116,205.913 233.200,204.633 233.200 C 202.367 233.200,202.000 233.505,202.000 235.390 C 202.000 237.086,201.992 237.096,200.342 237.317 C 198.194 237.605,198.013 237.960,198.006 241.900 L 198.000 245.200 196.424 245.200 C 194.448 245.200,194.368 245.341,194.102 249.326 C 193.865 252.867,193.668 253.185,191.700 253.194 L 190.400 253.200 190.400 257.000 L 190.400 260.800 189.033 260.800 C 186.467 260.800,186.400 260.908,186.400 265.021 L 186.400 268.756 184.500 268.878 L 182.600 269.000 182.485 272.700 L 182.370 276.400 181.014 276.400 C 178.834 276.400,178.400 277.169,178.400 281.029 L 178.400 284.400 176.790 284.400 C 174.801 284.400,174.400 285.203,174.400 289.183 C 174.400 292.147,174.209 292.400,171.967 292.400 L 170.800 292.400 170.800 294.950 C 170.800 299.392,170.571 299.939,168.654 300.079 L 167.000 300.200 166.886 304.079 L 166.772 307.957 164.886 308.079 L 163.000 308.200 162.885 311.900 L 162.770 315.600 161.559 315.600 C 159.080 315.600,158.800 316.048,158.800 320.014 L 158.800 323.600 157.047 323.600 C 154.966 323.600,154.814 323.915,154.805 328.241 L 154.800 331.083 151.740 331.341 C 147.522 331.698,127.028 331.580,128.942 331.210 C 130.960 330.820,131.187 330.374,131.194 326.767 L 131.200 323.734 133.100 323.367 L 135.000 323.000 135.115 319.300 L 135.230 315.600 136.972 315.600 C 139.088 315.600,139.200 315.380,139.200 311.211 L 139.200 308.087 141.100 307.740 L 143.000 307.394 143.115 303.697 L 143.230 300.000 144.968 300.000 C 146.925 300.000,147.185 299.593,147.195 296.500 C 147.198 295.297,147.367 294.800,147.771 294.800 C 148.085 294.800,148.713 294.305,149.167 293.700 C 149.620 293.095,150.173 292.383,150.396 292.117 C 150.618 291.851,150.800 290.816,150.800 289.817 C 150.800 288.014,150.811 288.000,152.171 288.000 C 154.338 288.000,154.800 287.221,154.800 283.571 L 154.800 280.400 156.171 280.400 C 158.366 280.400,158.800 279.637,158.800 275.771 L 158.800 272.400 160.557 272.400 C 162.693 272.400,162.800 272.189,162.800 267.967 L 162.800 264.800 164.100 264.794 C 166.309 264.783,166.534 264.408,166.724 260.430 L 166.898 256.800 168.649 256.800 L 170.400 256.800 170.400 254.600 C 170.400 252.569,170.471 252.400,171.324 252.400 C 173.331 252.400,174.369 250.403,174.390 246.500 L 174.400 244.800 176.010 244.800 C 178.003 244.800,178.400 243.999,178.400 239.974 L 178.400 237.200 180.157 237.200 C 182.364 237.200,182.400 237.106,182.400 231.400 C 182.400 225.261,182.647 225.600,178.179 225.600 L 174.444 225.600 174.322 223.700 L 174.200 221.800 172.322 221.679 L 170.444 221.558 170.322 219.895 C 170.178 217.931,169.688 217.702,165.500 217.640 L 162.800 217.600 162.800 215.843 C 162.800 213.901,162.447 213.600,160.167 213.600 C 158.813 213.600,158.800 213.582,158.800 211.800 L 158.800 210.000 156.800 210.000 L 154.800 210.000 154.800 208.000 L 154.800 206.000 152.815 206.000 L 150.830 206.000 150.715 202.301 L 150.600 198.602 148.952 198.255 L 147.304 197.908 147.054 195.512 C 146.719 192.309,146.089 191.111,144.500 190.656 L 143.200 190.284 143.200 187.116 C 143.200 183.080,142.852 182.400,140.786 182.400 L 139.200 182.400 139.176 172.900 C 139.146 160.881,139.035 160.171,136.873 158.219 L 135.200 156.707 135.200 153.553 C 135.200 150.526,135.237 150.400,136.124 150.400 C 138.789 150.400,139.195 148.251,139.198 134.108 L 139.200 123.615 140.100 123.423 C 140.595 123.318,141.359 123.177,141.797 123.111 C 142.846 122.952,143.094 121.671,143.153 116.123 L 143.200 111.646 144.900 111.523 L 146.600 111.400 146.954 107.713 L 147.307 104.026 148.954 103.701 L 150.600 103.377 150.715 99.688 L 150.830 96.000 152.815 96.000 L 154.800 96.000 154.800 94.022 L 154.800 92.044 156.700 91.922 L 158.600 91.800 158.722 89.900 L 158.844 88.000 160.575 88.000 C 162.402 88.000,162.781 87.539,162.795 85.300 C 162.799 84.554,163.022 84.399,164.100 84.394 C 165.900 84.385,166.260 84.054,166.586 82.100 L 166.870 80.400 168.635 80.400 L 170.400 80.400 170.400 78.414 L 170.400 76.429 174.300 76.314 L 178.200 76.200 178.322 74.300 L 178.444 72.400 183.742 72.400 C 189.576 72.400,190.000 72.246,190.000 70.127 L 190.000 68.814 199.900 68.700 C 222.794 68.435,243.283 68.417,246.140 68.659 M188.800 84.691 C 187.373 84.956,186.919 85.440,186.624 87.014 C 186.369 88.374,186.326 88.400,184.382 88.400 L 182.400 88.400 182.400 90.200 C 182.400 91.896,182.336 92.000,181.300 92.005 C 178.849 92.018,178.400 92.361,178.400 94.225 L 178.400 95.956 176.500 96.078 L 174.600 96.200 174.478 98.100 L 174.356 100.000 172.578 100.000 L 170.800 100.000 170.800 102.000 L 170.800 104.000 169.280 104.000 C 167.063 104.000,166.800 104.475,166.800 108.480 L 166.800 112.000 165.224 112.000 C 163.104 112.000,163.030 112.196,162.800 118.385 L 162.600 123.769 161.280 124.038 C 158.833 124.537,158.838 124.490,158.817 150.274 C 158.798 174.766,158.762 174.400,161.179 174.400 L 162.778 174.400 162.889 180.100 L 163.000 185.800 164.886 186.164 L 166.772 186.529 166.886 190.164 L 167.000 193.800 168.595 193.930 C 170.457 194.081,170.786 194.466,170.794 196.500 L 170.800 198.000 172.600 198.000 L 174.400 198.000 174.400 199.605 C 174.400 200.488,174.561 201.523,174.757 201.905 C 174.953 202.287,175.311 203.099,175.553 203.709 C 175.854 204.471,176.371 204.894,177.204 205.061 C 177.871 205.194,178.514 205.460,178.632 205.652 C 178.750 205.843,179.647 206.000,180.624 206.000 L 182.400 206.000 182.400 207.800 L 182.400 209.600 184.400 209.600 L 186.400 209.600 186.400 210.971 C 186.400 213.364,186.991 213.600,192.997 213.600 L 198.336 213.600 198.603 214.814 C 199.144 217.277,199.717 217.388,212.582 217.513 C 226.547 217.648,227.923 217.439,228.700 215.065 C 229.096 213.853,229.181 199.934,229.101 149.065 L 229.000 84.600 209.400 84.553 C 198.620 84.527,189.350 84.589,188.800 84.691 " stroke="none" fill="#ffffff" fill-rule="evenodd"></path></g></svg>