<svg xmlns="http://www.w3.org/2000/svg" width="138" height="92" viewBox="0 0 36.512 24.342"><path d="M18.975 24.11L.341 15.714.391.467 36.086.375l.142 15.248z" fill="#fff" fill-opacity=".6" fill-rule="evenodd" stroke="#010202" stroke-width=".516"/><g aria-label="Яндекс" style="line-height:1.25;-inkscape-font-specification:Arial" font-weight="400" font-size="20" font-family="Arial" letter-spacing="0" word-spacing="0"><path d="M11.862 10.17V4.816h-2.07q-.625 0-.95.146-.324.143-.519.508-.194.365-.194.807 0 .57.322.961.321.391.994.497-.246.135-.373.267-.27.285-.513.712l-.812 1.458h.777l.618-1.114q.27-.483.446-.738.175-.256.312-.358.14-.103.283-.143.106-.026.344-.026h.717v2.379zm-.618-2.991H9.916q-.424 0-.663-.099-.238-.102-.363-.321-.124-.223-.124-.483 0-.38.239-.624.242-.245.761-.245h1.478z" style="text-align:center" text-anchor="middle" fill="red"/><path d="M12.811 6.291h.573v1.615h1.59V6.29h.573v3.88h-.573V8.45h-1.59v1.72h-.573zM16.866 6.291h2.357v3.34h.366v1.64h-.472v-1.1h-2.662v1.1h-.472V9.63h.303q.605-.943.58-3.34zm.477.544q-.063 1.89-.51 2.795h1.82V6.835zM22.538 8.921l.593.084q-.14.596-.52.925-.379.329-.968.329-.742 0-1.178-.523-.433-.526-.433-1.472 0-.98.44-1.52.439-.54 1.14-.54.678 0 1.108.529.43.53.43 1.49 0 .059-.003.176h-2.523q.032.64.315.979.284.34.707.34.316 0 .539-.19.223-.19.353-.607zm-1.882-1.063h1.889q-.039-.49-.217-.734-.274-.38-.71-.38-.395 0-.666.303-.267.303-.296.811zM23.85 6.291h.574v1.677q.274 0 .382-.12.111-.121.325-.702.169-.46.274-.607.105-.146.242-.197.137-.051.44-.051h.114v.544l-.16-.003q-.225 0-.29.076-.066.08-.203.479-.13.38-.239.526-.108.146-.334.267.37.113.726.789l.627 1.202h-.63l-.612-1.202q-.188-.362-.328-.475-.14-.117-.334-.117v1.794h-.574zM28.991 8.75l.564.084q-.093.668-.475 1.048-.379.377-.933.377-.694 0-1.118-.52-.42-.522-.42-1.494 0-.628.181-1.1.182-.47.551-.704.373-.238.81-.238.55 0 .9.322.351.318.45.906l-.558.098q-.08-.39-.283-.588-.2-.197-.487-.197-.434 0-.704.358-.271.354-.271 1.125 0 .782.261 1.136.261.355.682.355.337 0 .563-.238.227-.237.287-.73z"/></g></svg>