<?xml version="1.0" encoding="utf-8"?>
<!-- Generator: Adobe Illustrator 20.1.0, SVG Export Plug-In . SVG Version: 6.00 Build 0)  -->
<svg version="1.1" id="Слой_1" xmlns="http://www.w3.org/2000/svg" xmlns:xlink="http://www.w3.org/1999/xlink" x="0px" y="0px"
	 viewBox="0 0 236 240" style="enable-background:new 0 0 236 240;" xml:space="preserve">
<style type="text/css">
	.st0{fill:#FFFFFF;}
</style>
<g>
	<path class="st0" d="M102.4,105.3c0,7,6.9,10.7,15.6,10.8c2.9,0,5.9-0.1,7.7-0.3V95.3c-1.4-0.3-4.3-0.8-8.5-0.8
		C109.6,94.5,102.4,96.7,102.4,105.3z"/>
	<path class="st0" d="M118,0C52.8,0,0,53.7,0,120s52.8,120,118,120s118-53.7,118-120S183.2,0,118,0z M138.4,152.9h-12.7v-27.6h-5.9
		c-3.9,0-6.7,0.9-8.9,3c-4.9,4.4-7.1,13.4-9.6,19.5c-0.7,1.7-1.3,3.1-2.4,5.1H85.1c1.3-2,2.4-4.3,3.3-6.8c3.2-8,5.4-16.3,10.8-21.4
		c1.6-1.6,3.6-2.8,5.8-3.6v-0.3c-8.2-1.2-15.5-6.9-15.5-16.6c0-5.9,2.6-10.6,6.7-13.8c5.1-3.9,13.2-5.5,22.6-5.5
		c7.4,0,14.6,0.7,19.6,1.5V152.9z"/>
</g>
</svg>
